<svg width="131" height="17" viewBox="0 0 131 17" fill="none" xmlns="http://www.w3.org/2000/svg">
<path d="M3.81598 -4.76837e-07V16H0.433166V-4.76837e-07H3.81598ZM9.65199 -4.76837e-07V16H6.26918V-4.76837e-07H9.65199ZM12.1052 16V-4.76837e-07H22.8864V2.78906H15.488V6.60156H22.3318V9.39062H15.488V13.2109H22.9177V16H12.1052ZM28.5115 -4.76837e-07V16H25.1834V-4.76837e-07H28.5115ZM36.3163 16.2344C35.0819 16.2344 34.0194 15.9844 33.1288 15.4844C32.2434 14.9792 31.5611 14.2656 31.0819 13.3437C30.6028 12.4167 30.3632 11.3203 30.3632 10.0547C30.3632 8.82031 30.6028 7.73698 31.0819 6.80469C31.5611 5.8724 32.2356 5.14583 33.1054 4.625C33.9804 4.10417 35.0064 3.84375 36.1835 3.84375C36.9751 3.84375 37.7121 3.97135 38.3944 4.22656C39.0819 4.47656 39.6809 4.85417 40.1913 5.35937C40.7069 5.86458 41.108 6.5 41.3944 7.26562C41.6809 8.02604 41.8241 8.91667 41.8241 9.9375V10.8516H31.6913V8.78906H38.6913C38.6913 8.3099 38.5871 7.88542 38.3788 7.51563C38.1705 7.14583 37.8814 6.85677 37.5116 6.64844C37.147 6.4349 36.7225 6.32812 36.2382 6.32812C35.733 6.32812 35.285 6.44531 34.8944 6.67969C34.509 6.90885 34.2069 7.21875 33.9882 7.60937C33.7694 7.99479 33.6574 8.42448 33.6522 8.89844V10.8594C33.6522 11.4531 33.7616 11.9661 33.9804 12.3984C34.2043 12.8307 34.5194 13.1641 34.9257 13.3984C35.3319 13.6328 35.8137 13.75 36.371 13.75C36.7408 13.75 37.0793 13.6979 37.3866 13.5938C37.6939 13.4896 37.9569 13.3333 38.1757 13.125C38.3944 12.9167 38.5611 12.6615 38.6757 12.3594L41.7538 12.5625C41.5975 13.3021 41.2772 13.9479 40.7929 14.5C40.3137 15.0469 39.6939 15.474 38.9335 15.7813C38.1783 16.0833 37.3059 16.2344 36.3163 16.2344ZM54.5312 4L50.3359 16H46.5859L42.3906 4H45.9062L48.3984 12.5859H48.5234L51.0078 4H54.5312ZM60.9864 16.2344C59.752 16.2344 58.6895 15.9844 57.7989 15.4844C56.9135 14.9792 56.2312 14.2656 55.752 13.3437C55.2728 12.4167 55.0332 11.3203 55.0332 10.0547C55.0332 8.82031 55.2728 7.73698 55.752 6.80469C56.2312 5.8724 56.9056 5.14583 57.7754 4.625C58.6504 4.10417 59.6765 3.84375 60.8536 3.84375C61.6452 3.84375 62.3822 3.97135 63.0645 4.22656C63.752 4.47656 64.351 4.85417 64.8614 5.35937C65.377 5.86458 65.778 6.5 66.0645 7.26562C66.351 8.02604 66.4942 8.91667 66.4942 9.9375V10.8516H56.3614V8.78906H63.3614C63.3614 8.3099 63.2572 7.88542 63.0489 7.51563C62.8405 7.14583 62.5515 6.85677 62.1817 6.64844C61.8171 6.4349 61.3926 6.32812 60.9082 6.32812C60.403 6.32812 59.9551 6.44531 59.5645 6.67969C59.1791 6.90885 58.877 7.21875 58.6582 7.60937C58.4395 7.99479 58.3275 8.42448 58.3223 8.89844V10.8594C58.3223 11.4531 58.4317 11.9661 58.6504 12.3984C58.8744 12.8307 59.1895 13.1641 59.5957 13.3984C60.002 13.6328 60.4838 13.75 61.0411 13.75C61.4108 13.75 61.7494 13.6979 62.0567 13.5938C62.364 13.4896 62.627 13.3333 62.8457 13.125C63.0645 12.9167 63.2312 12.6615 63.3457 12.3594L66.4239 12.5625C66.2676 13.3021 65.9473 13.9479 65.4629 14.5C64.9838 15.0469 64.364 15.474 63.6036 15.7813C62.8483 16.0833 61.976 16.2344 60.9864 16.2344ZM71.6642 9.0625V16H68.3361V4H71.5079V6.11719H71.6486C71.9142 5.41927 72.3595 4.86719 72.9845 4.46094C73.6095 4.04948 74.3673 3.84375 75.2579 3.84375C76.0913 3.84375 76.8178 4.02604 77.4376 4.39062C78.0574 4.75521 78.5392 5.27604 78.8829 5.95312C79.2267 6.625 79.3986 7.42708 79.3986 8.35937V16H76.0704V8.95312C76.0756 8.21875 75.8881 7.64583 75.5079 7.23438C75.1277 6.81771 74.6043 6.60937 73.9376 6.60937C73.4897 6.60937 73.0939 6.70573 72.7501 6.89844C72.4116 7.09115 72.146 7.3724 71.9532 7.74219C71.7657 8.10677 71.6694 8.54688 71.6642 9.0625ZM81.7541 16V-4.76837e-07H85.1369V13.2109H91.9963V16H81.7541ZM97.2659 16.2266C96.5003 16.2266 95.818 16.0938 95.219 15.8281C94.6201 15.5573 94.1461 15.1589 93.7971 14.6328C93.4534 14.1016 93.2815 13.4401 93.2815 12.6484C93.2815 11.9818 93.4039 11.4219 93.6487 10.9687C93.8935 10.5156 94.2268 10.151 94.6487 9.875C95.0706 9.59896 95.5498 9.39062 96.0862 9.25C96.6279 9.10937 97.1956 9.01042 97.7893 8.95312C98.4873 8.88021 99.0498 8.8125 99.4768 8.75C99.9039 8.68229 100.214 8.58333 100.407 8.45312C100.599 8.32292 100.696 8.13021 100.696 7.875V7.82812C100.696 7.33333 100.539 6.95052 100.227 6.67969C99.9195 6.40885 99.482 6.27344 98.9143 6.27344C98.3154 6.27344 97.8388 6.40625 97.4846 6.67187C97.1305 6.93229 96.8961 7.26042 96.7815 7.65625L93.7034 7.40625C93.8596 6.67708 94.1669 6.04687 94.6253 5.51562C95.0836 4.97917 95.6748 4.56771 96.3987 4.28125C97.1279 3.98958 97.9716 3.84375 98.93 3.84375C99.5966 3.84375 100.235 3.92187 100.844 4.07812C101.459 4.23437 102.003 4.47656 102.477 4.80469C102.956 5.13281 103.334 5.55469 103.61 6.07031C103.886 6.58073 104.024 7.19271 104.024 7.90625V16H100.867V14.3359H100.774C100.581 14.7109 100.323 15.0417 100 15.3281C99.6774 15.6094 99.2893 15.8307 98.8362 15.9922C98.3831 16.1484 97.8596 16.2266 97.2659 16.2266ZM98.219 13.9297C98.7086 13.9297 99.1409 13.8333 99.5159 13.6406C99.8909 13.4427 100.185 13.1771 100.399 12.8438C100.612 12.5104 100.719 12.1328 100.719 11.7109V10.4375C100.615 10.5052 100.472 10.5677 100.289 10.625C100.112 10.6771 99.9117 10.7266 99.6878 10.7734C99.4638 10.8151 99.2399 10.8542 99.0159 10.8906C98.7919 10.9219 98.5888 10.9505 98.4065 10.9766C98.0159 11.0339 97.6748 11.125 97.3831 11.25C97.0914 11.375 96.8649 11.5443 96.7034 11.7578C96.5419 11.9661 96.4612 12.2266 96.4612 12.5391C96.4612 12.9922 96.6253 13.3385 96.9534 13.5781C97.2867 13.8125 97.7086 13.9297 98.219 13.9297ZM106.338 16V-4.76837e-07H109.666V6.01562H109.768C109.914 5.69271 110.125 5.36458 110.401 5.03125C110.682 4.69271 111.047 4.41146 111.494 4.1875C111.948 3.95833 112.51 3.84375 113.182 3.84375C114.057 3.84375 114.864 4.07292 115.604 4.53125C116.343 4.98437 116.935 5.66927 117.377 6.58594C117.82 7.4974 118.041 8.64062 118.041 10.0156C118.041 11.3542 117.825 12.4844 117.393 13.4062C116.966 14.3229 116.383 15.0182 115.643 15.4922C114.909 15.9609 114.086 16.1953 113.174 16.1953C112.528 16.1953 111.979 16.0885 111.526 15.875C111.078 15.6615 110.711 15.3932 110.424 15.0703C110.138 14.7422 109.919 14.4115 109.768 14.0781H109.619V16H106.338ZM109.596 10C109.596 10.7135 109.695 11.3359 109.893 11.8672C110.091 12.3984 110.377 12.8125 110.752 13.1094C111.127 13.401 111.583 13.5469 112.119 13.5469C112.661 13.5469 113.119 13.3984 113.494 13.1016C113.869 12.7995 114.153 12.3828 114.346 11.8516C114.544 11.3151 114.643 10.6979 114.643 10C114.643 9.30729 114.547 8.69792 114.354 8.17187C114.161 7.64583 113.877 7.23437 113.502 6.9375C113.127 6.64062 112.666 6.49219 112.119 6.49219C111.578 6.49219 111.119 6.63542 110.744 6.92187C110.375 7.20833 110.091 7.61458 109.893 8.14062C109.695 8.66667 109.596 9.28646 109.596 10ZM129.916 7.42187L126.87 7.60937C126.817 7.34896 126.706 7.11458 126.534 6.90625C126.362 6.69271 126.135 6.52344 125.854 6.39844C125.578 6.26823 125.247 6.20312 124.862 6.20312C124.346 6.20312 123.911 6.3125 123.557 6.53125C123.203 6.74479 123.026 7.03125 123.026 7.39062C123.026 7.67708 123.14 7.91927 123.37 8.11719C123.599 8.3151 123.992 8.47396 124.549 8.59375L126.721 9.03125C127.888 9.27083 128.758 9.65625 129.331 10.1875C129.903 10.7187 130.19 11.4167 130.19 12.2812C130.19 13.0677 129.958 13.7578 129.495 14.3516C129.036 14.9453 128.406 15.4089 127.604 15.7422C126.807 16.0703 125.888 16.2344 124.846 16.2344C123.258 16.2344 121.992 15.9036 121.049 15.2422C120.112 14.5755 119.562 13.6693 119.401 12.5234L122.674 12.3516C122.773 12.8359 123.013 13.2057 123.393 13.4609C123.773 13.7109 124.26 13.8359 124.854 13.8359C125.437 13.8359 125.906 13.724 126.26 13.5C126.62 13.2708 126.802 12.9766 126.807 12.6172C126.802 12.3151 126.674 12.0677 126.424 11.875C126.174 11.6771 125.789 11.526 125.268 11.4219L123.19 11.0078C122.018 10.7734 121.146 10.3672 120.573 9.78906C120.005 9.21094 119.721 8.47396 119.721 7.57812C119.721 6.80729 119.929 6.14323 120.346 5.58594C120.768 5.02865 121.359 4.59896 122.12 4.29687C122.885 3.99479 123.781 3.84375 124.807 3.84375C126.323 3.84375 127.515 4.16406 128.385 4.80469C129.26 5.44531 129.771 6.31771 129.916 7.42187Z" fill="#36364A"/>
</svg>
