<svg width="105" height="24" viewBox="0 0 105 24" fill="none" xmlns="http://www.w3.org/2000/svg">
<g clipPath="url(#clip0_297_4186)">
<mask id="mask0_297_4186" style="mask-type:luminance" maskUnits="userSpaceOnUse" x="0" y="0" width="105" height="24">
<path d="M104.565 0H0V24H104.565V0Z" fill="white"/>
</mask>
<g mask="url(#mask0_297_4186)">
<path d="M5.94947 13.121C5.65385 13.415 5.28431 13.562 4.84087 13.562H3.32579H1.14555C0.812972 13.562 0.554299 13.4518 0.332579 13.2312C0.147813 13.0107 0 12.7534 0 12.4227V6.79939V1.13936C0 0.808576 0.147813 0.551302 0.332579 0.330781C0.554299 0.147014 0.849924 0 1.14555 0H4.54525H7.94495C8.27753 0 8.5362 0.147014 8.75792 0.330781C8.97964 0.551302 9.0905 0.808576 9.0905 1.13936V5.54977V9.33537C9.0905 9.73966 8.94268 10.1439 8.64706 10.4012L7.31674 11.7243L5.94947 13.121Z" fill="#36364A"/>
<path d="M10.8649 5.9173C10.5692 5.62328 10.4214 5.25574 10.4214 4.85145V3.30781V1.13936C10.4214 0.808576 10.5692 0.551302 10.754 0.330781C10.9757 0.147014 11.2714 0 11.567 0H17.2208H22.9116C23.2442 0 23.5029 0.147014 23.7246 0.330781C23.9463 0.551302 24.0572 0.808576 24.0572 1.13936V4.52067V7.90199C24.0572 8.23277 23.9093 8.49005 23.7246 8.71057C23.5029 8.93109 23.2442 9.04135 22.9116 9.04135H18.4772H14.6341C14.2276 9.04135 13.8212 8.89433 13.5255 8.60031L12.1952 7.27718L10.8649 5.9173Z" fill="#36364A"/>
<path d="M18.1438 10.8785C18.4394 10.5845 18.8089 10.4375 19.2524 10.4375H20.7675H22.9108C23.2433 10.4375 23.502 10.5845 23.7237 10.7683C23.9455 10.9888 24.0563 11.2461 24.0563 11.5768V17.2001V22.8234C24.0563 23.1542 23.9085 23.4115 23.7237 23.632C23.502 23.8525 23.2433 23.9628 22.9108 23.9628H19.511H16.1113C15.7787 23.9628 15.5201 23.8157 15.2983 23.632C15.0766 23.4115 14.9658 23.1542 14.9658 22.8234V18.413V14.6274C14.9658 14.2231 15.1136 13.8188 15.4092 13.5615L16.7395 12.2384L18.1438 10.8785Z" fill="#36364A"/>
<path d="M13.1923 18.0831C13.4879 18.3771 13.6357 18.7446 13.6357 19.1857V20.6926V22.861C13.6357 23.1918 13.4879 23.4491 13.3031 23.6696C13.0814 23.8901 12.8227 24.0004 12.4902 24.0004H6.83635H1.14555C0.812972 24.0004 0.554299 23.8534 0.332579 23.6696C0.147813 23.4491 0 23.1551 0 22.861V19.4797V16.0984C0 15.7676 0.147813 15.5103 0.332579 15.2898C0.554299 15.0693 0.812972 14.959 1.14555 14.959H5.57994H9.38612C9.79261 14.959 10.199 15.1061 10.4577 15.4001L11.788 16.7232L13.1923 18.0831Z" fill="#36364A"/>
<path d="M62.2312 18.0822C62.0834 18.1924 61.9356 18.3027 61.8247 18.3762C61.7138 18.4497 61.6399 18.4865 61.566 18.5232C61.4921 18.56 61.4182 18.5967 61.3813 18.5967C61.3073 18.5967 61.2704 18.5967 61.1595 18.5967C60.8639 18.5967 60.6422 18.4497 60.5313 18.1924C60.4205 17.8984 60.3466 17.3839 60.3466 16.612V13.047C60.3466 12.4221 60.3096 11.9076 60.2357 11.5768C60.1618 11.246 60.0509 10.9153 59.8662 10.6212C59.2749 9.7024 58.1293 9.22461 56.4665 9.22461C55.2471 9.22461 54.2493 9.44513 53.5103 9.84942C52.7712 10.2537 52.4386 10.8417 52.4386 11.5768C52.4386 11.9444 52.5495 12.2751 52.7712 12.4957C52.9929 12.7162 53.2886 12.8632 53.6211 12.8632C53.9907 12.8632 54.3232 12.7529 54.545 12.5324C54.7667 12.3119 54.9145 12.0179 54.9145 11.6871C54.9145 11.393 54.8036 11.1358 54.6189 10.952C54.4711 10.805 54.3972 10.7315 54.3972 10.7315C54.3602 10.6947 54.3602 10.6947 54.3602 10.658C54.3602 10.5845 54.3972 10.511 54.508 10.4007C54.6189 10.3272 54.7297 10.2537 54.8775 10.1802C55.0254 10.1067 55.2101 10.0699 55.3949 10.0332C55.5797 9.99643 55.8014 9.99643 55.9861 9.99643C56.9839 9.99643 57.649 10.2904 57.9815 10.8785C58.0554 11.0255 58.1293 11.1358 58.1663 11.2828C58.2033 11.3931 58.2402 11.5768 58.2772 11.7606C58.3141 11.9444 58.3141 12.1649 58.3511 12.4221C58.3511 12.7162 58.388 13.047 58.388 13.4145L56.3557 13.782L55.5427 13.929C55.1362 14.0025 54.7667 14.0761 54.508 14.1496C54.2124 14.2231 53.9537 14.2966 53.732 14.3701C53.5103 14.4436 53.3255 14.5538 53.1407 14.6641C52.956 14.7744 52.8082 14.8846 52.6603 14.9949C52.143 15.4727 51.8843 16.1342 51.8843 16.9796C51.8843 17.8984 52.143 18.6335 52.6973 19.148C53.2146 19.6626 53.9537 19.9566 54.8775 19.9566C55.5427 19.9566 56.1709 19.8096 56.7252 19.5156C57.2794 19.2215 57.8337 18.7437 58.425 18.0822C58.4989 18.3762 58.5728 18.6335 58.6097 18.7805C58.6837 18.9275 58.7576 19.0745 58.8684 19.2215C59.0162 19.4421 59.201 19.5891 59.4227 19.6993C59.6444 19.8096 59.8662 19.8831 60.1248 19.8831C60.5313 19.8831 60.9009 19.7728 61.2704 19.5891C61.6399 19.4053 62.0834 19.0378 62.5638 18.5967L62.2312 18.0822ZM58.425 13.9658V15.6564C58.425 16.3915 58.3141 16.9796 58.0924 17.3471C57.8707 17.7146 57.575 18.0087 57.1686 18.2292C56.7621 18.4497 56.3187 18.56 55.8753 18.56C55.284 18.56 54.8036 18.3762 54.4711 18.0087C54.1015 17.6411 53.9537 17.1633 53.9537 16.5753C53.9537 15.6197 54.3972 14.9949 55.2471 14.6641C55.5427 14.5538 55.9492 14.4436 56.4296 14.3333C56.9099 14.2598 57.575 14.1128 58.425 13.9658Z" fill="#36364A"/>
<path d="M69.7675 18.2293C69.398 18.3764 69.0654 18.4866 68.8437 18.5234C68.6219 18.5969 68.4002 18.5969 68.2154 18.5969C67.6611 18.5969 67.2547 18.4499 66.996 18.1191C66.7373 17.7883 66.5895 17.3105 66.5895 16.6857V10.5479H69.6197V9.84952H66.5895V5.80664H66.1091L64.7049 7.20328V9.81277H62.229V10.5111H64.7049V17.384C64.7049 18.1558 64.8896 18.7806 65.2592 19.1482C65.6287 19.5525 66.183 19.7362 66.8851 19.7362C67.3655 19.7362 67.8459 19.6627 68.3263 19.479C68.8067 19.332 69.361 19.0379 69.9892 18.6704L69.7675 18.2293Z" fill="#36364A"/>
<path d="M82.6655 8.15868C83.035 8.15868 83.3677 8.04842 83.6264 7.79114C83.885 7.53387 83.9958 7.23984 83.9958 6.87231C83.9958 6.50477 83.885 6.21074 83.6264 5.95347C83.3677 5.6962 83.072 5.58594 82.7024 5.58594C82.3698 5.58594 82.0374 5.6962 81.7787 5.95347C81.52 6.21074 81.4092 6.50477 81.4092 6.83555C81.4092 7.20309 81.52 7.49712 81.7787 7.75439C82.0004 8.01166 82.3329 8.15868 82.6655 8.15868Z" fill="#36364A"/>
<path d="M103.47 17.1266C103.175 17.4574 102.879 17.7146 102.621 17.9352C102.362 18.1557 102.103 18.3027 101.845 18.4497C101.586 18.56 101.327 18.6702 101.031 18.707C100.736 18.7437 100.44 18.7805 100.071 18.7805C98.8515 18.7805 97.9277 18.3762 97.2995 17.5676C97.0408 17.2001 96.856 16.7958 96.7452 16.318C96.6343 15.8402 96.5973 15.2154 96.5973 14.4068H104.321C104.284 13.6718 104.209 13.047 104.136 12.6059C104.024 12.1281 103.877 11.7238 103.655 11.3195C103.285 10.658 102.731 10.1434 101.992 9.77591C101.253 9.40837 100.44 9.22461 99.5167 9.22461C98.7406 9.22461 98.0385 9.33487 97.4103 9.59214C96.7821 9.84942 96.2648 10.1802 95.8213 10.6212C95.3779 11.0623 95.0453 11.6136 94.8236 12.2751C94.6019 12.9367 94.4541 13.6718 94.4541 14.4436C94.4541 15.2522 94.5649 15.9872 94.8236 16.6488C95.0453 17.3104 95.4148 17.8617 95.8213 18.3395C96.2648 18.8172 96.7821 19.148 97.4103 19.4053C98.0385 19.6626 98.7406 19.7728 99.5167 19.7728C99.9971 19.7728 100.403 19.7361 100.81 19.6626C101.216 19.5891 101.586 19.4421 101.919 19.2583C102.288 19.0745 102.621 18.854 102.954 18.56C103.285 18.2659 103.655 17.9352 103.988 17.5309L103.47 17.1266ZM99.4058 9.88617C100.33 9.88617 100.995 10.1802 101.401 10.7682C101.807 11.3563 102.067 12.3119 102.177 13.7085H96.5604C96.6713 12.3486 96.9299 11.3563 97.3734 10.7682C97.8168 10.1802 98.5189 9.88617 99.4058 9.88617Z" fill="#36364A"/>
<path d="M48.9274 18.67C48.7426 18.5965 48.5948 18.4862 48.484 18.3392C48.3731 18.1922 48.3361 17.9717 48.2992 17.7144C48.2622 17.4571 48.2622 17.0896 48.2622 16.6485V4.15234L44.456 5.07117V5.76949C44.8256 5.76949 45.1581 5.80624 45.3799 5.87975C45.6385 5.95325 45.8233 6.06352 45.9342 6.21053C46.082 6.35754 46.1559 6.57806 46.2298 6.87209C46.2667 7.16612 46.3037 7.53365 46.3037 7.97469V16.6485C46.3037 17.0896 46.3037 17.4204 46.2667 17.7144C46.2298 17.9717 46.1928 18.1922 46.082 18.3392C45.9711 18.4862 45.8233 18.5965 45.6385 18.67C45.4538 18.7435 45.1951 18.7802 44.8625 18.8538L44.3452 18.8905V19.5521H50.2577V18.8905L49.7404 18.8538C49.3708 18.817 49.1122 18.7435 48.9274 18.67Z" fill="#36364A"/>
<path d="M84.66 18.6713C84.4752 18.5978 84.3274 18.4875 84.2166 18.3405C84.1057 18.1935 84.0688 17.973 84.0318 17.7157C83.9948 17.4584 83.9948 17.0909 83.9948 16.6498V8.93164L80.1886 9.85047V10.5488C80.5582 10.5488 80.8908 10.5855 81.1125 10.659C81.3712 10.7325 81.5559 10.8428 81.7037 10.9898C81.8516 11.1368 81.9255 11.3573 81.9994 11.6514C82.0363 11.9454 82.0733 12.3129 82.0733 12.754V16.6866C82.0733 17.1276 82.0733 17.4584 82.0363 17.7524C81.9994 18.0097 81.9624 18.2302 81.8516 18.3772C81.7407 18.5243 81.5929 18.6345 81.4081 18.708C81.2233 18.7815 80.9647 18.8183 80.6321 18.8918L80.1147 18.9285V19.5901H86.0273V18.9285L85.5099 18.8918C85.1034 18.8183 84.8448 18.7448 84.66 18.6713Z" fill="#36364A"/>
<path d="M92.0146 18.67C91.8299 18.5965 91.682 18.4862 91.5712 18.3392C91.4603 18.1922 91.4234 17.9717 91.3864 17.7144C91.3495 17.4571 91.3495 17.0896 91.3495 16.6485V4.15234L87.5802 5.10793V5.80624C87.9497 5.80624 88.2823 5.84299 88.504 5.9165C88.7627 5.99001 88.9475 6.10027 89.0953 6.24728C89.2431 6.3943 89.317 6.61482 89.3909 6.90884C89.4279 7.20287 89.4648 7.57041 89.4648 8.01145V16.6853C89.4648 17.1263 89.4648 17.4571 89.4279 17.7511C89.3909 18.0084 89.354 18.2289 89.2431 18.376C89.1323 18.523 88.9844 18.6332 88.7997 18.7067C88.6149 18.7802 88.3562 18.817 88.0236 18.8905L87.5063 18.9273V19.5888H93.4189V18.9273L92.9015 18.8905C92.495 18.817 92.2363 18.7435 92.0146 18.67Z" fill="#36364A"/>
<path d="M78.5633 5.07154C78.1199 4.77752 77.5656 4.59375 76.8634 4.59375C75.8287 4.59375 74.9788 4.92453 74.3506 5.58609C73.7224 6.24765 73.4268 7.16649 73.4268 8.30585C73.4268 8.41611 73.4268 9.00416 73.4268 9.18793C73.4268 9.40845 73.4638 9.59222 73.4638 9.81274H71.4683V10.511H73.4638V16.6489C73.4638 17.0899 73.4637 17.4207 73.4268 17.7147C73.3898 17.972 73.353 18.1925 73.2421 18.3395C73.1312 18.4865 72.9834 18.5968 72.7987 18.6703C72.6139 18.7438 72.3552 18.7806 72.0226 18.8541L71.5053 18.8908V19.5524H77.5655V18.8908L76.9004 18.8541C76.5678 18.7806 76.3091 18.7438 76.1244 18.6703C75.9396 18.5968 75.7918 18.4865 75.6809 18.3395C75.5701 18.1925 75.5331 17.972 75.4962 17.7147C75.4592 17.4574 75.4592 17.0899 75.4592 16.6489V10.5478H78.1938V9.84949H75.4592C75.4223 9.77598 75.1266 8.8939 74.9788 7.93831C74.9049 7.35026 74.9049 6.87246 75.0158 6.46817C75.1266 5.95363 75.3853 5.62284 75.7918 5.43908H75.8287C75.8287 5.43908 75.8287 5.43908 75.8657 5.43908C75.8657 5.43908 75.8657 5.43908 75.9026 5.43908H75.9396C76.1244 5.36557 76.3091 5.32882 76.4939 5.32882C76.6787 5.32882 76.8634 5.36557 77.0482 5.43908C77.196 5.51258 77.3069 5.58609 77.3069 5.6596C77.3069 5.69635 77.2699 5.76986 77.196 5.84337C76.9743 6.06389 76.8265 6.35791 76.8265 6.68869C76.8265 7.01948 76.9373 7.27675 77.1591 7.49727C77.3808 7.71779 77.6764 7.7913 78.009 7.7913C78.3785 7.7913 78.7111 7.64428 78.9698 7.38701C79.2285 7.12974 79.3393 6.7622 79.3393 6.35791C79.2285 5.76986 79.0067 5.36557 78.5633 5.07154Z" fill="#36364A"/>
<path d="M32.1133 5.10938V5.80769L32.8893 5.8812C33.4805 5.9547 33.887 6.10172 34.0718 6.32224C34.1457 6.39574 34.1826 6.46925 34.2196 6.54276C34.2566 6.61626 34.2935 6.68977 34.2935 6.83678C34.2935 6.94705 34.3305 7.09406 34.3305 7.27783C34.3305 7.46159 34.3305 7.71888 34.3305 8.0129V16.6499C34.3305 16.944 34.3305 17.2012 34.3305 17.385C34.3305 17.5688 34.2935 17.7158 34.2935 17.826C34.2935 17.9363 34.2566 18.0466 34.2196 18.1201C34.1826 18.1936 34.1457 18.2671 34.0718 18.3038C33.887 18.5611 33.4805 18.7081 32.8893 18.7449L32.1133 18.8184V19.5167H39.0234V18.8184L38.0257 18.7449C37.4345 18.7081 37.065 18.5611 36.8433 18.3038C36.7694 18.2303 36.7324 18.1936 36.7324 18.1201C36.6955 18.0466 36.6955 17.9363 36.6585 17.826C36.6216 17.7158 36.6216 17.5688 36.6216 17.385C36.6216 17.2012 36.6216 16.9807 36.6216 16.6499V13.3054H38.5061C38.7278 13.3054 38.9126 13.3421 39.0604 13.3789C39.2452 13.4156 39.4299 13.4891 39.5777 13.5994C39.7256 13.7097 39.8364 13.8567 39.9473 14.0772C40.0581 14.261 40.169 14.5182 40.2429 14.8123L40.4277 15.4003H41.2776V10.2916H40.4277L40.2799 10.8796C40.169 11.2104 40.0581 11.4677 39.9842 11.6515C39.8734 11.872 39.7625 12.019 39.6147 12.1293C39.4669 12.2395 39.3191 12.3498 39.1343 12.3865C39.0234 12.4233 38.9126 12.4233 38.7278 12.46H36.5846V6.02821H38.9495C39.6517 6.02821 40.2429 6.06496 40.6864 6.13847C41.1298 6.21198 41.4993 6.35899 41.758 6.57951C42.0167 6.80003 42.2014 7.09406 42.2753 7.46159C42.3862 7.82913 42.4232 8.34368 42.4601 8.93173H43.31V5.10938H32.1133Z" fill="#36364A"/>
</g>
</g>
<defs>
<clipPath id="clip0_297_4186">
<rect width="104.565" height="24" fill="white"/>
</clipPath>
</defs>
</svg>
