<svg width="107" height="28" viewBox="0 0 107 28" fill="none" xmlns="http://www.w3.org/2000/svg">
<path d="M48.6674 9.67286V11.9188C47.6975 10.3833 46.0579 9.39785 44.0026 9.39785C40.7464 9.39785 38.0444 12.0104 38.0444 15.4022C38.0444 18.794 40.7464 21.4066 44.0026 21.4066C46.0579 21.4066 47.6975 20.4212 48.6674 18.8857V20.6733C48.6674 23.0108 47.074 24.5234 44.3951 24.5234C41.9011 24.5234 40.8387 23.6067 40.2614 22.4379L38.922 23.1942C39.8226 24.9817 41.7394 25.9901 44.3951 25.9901C47.3742 25.9901 50.1916 24.1567 50.1916 20.6733V9.67286H48.6674ZM44.118 19.9399C41.5546 19.9399 39.5686 17.9461 39.5686 15.4022C39.5686 12.8584 41.5546 10.8646 44.118 10.8646C46.6814 10.8646 48.6674 12.8584 48.6674 15.4022C48.6674 17.9461 46.6814 19.9399 44.118 19.9399ZM58.7995 21.4066C62.1712 21.4066 64.8731 18.794 64.8731 15.4022C64.8731 12.0104 62.1712 9.39785 58.7995 9.39785C55.4279 9.39785 52.7259 12.0104 52.7259 15.4022C52.7259 18.794 55.4279 21.4066 58.7995 21.4066ZM58.7995 19.9399C56.2361 19.9399 54.2501 17.9461 54.2501 15.4022C54.2501 12.8584 56.2361 10.8646 58.7995 10.8646C61.3629 10.8646 63.3489 12.8584 63.3489 15.4022C63.3489 17.9461 61.3629 19.9399 58.7995 19.9399ZM72.8045 21.4066C76.1761 21.4066 78.8781 18.794 78.8781 15.4022C78.8781 12.0104 76.1761 9.39785 72.8045 9.39785C69.4328 9.39785 66.7309 12.0104 66.7309 15.4022C66.7309 18.794 69.4328 21.4066 72.8045 21.4066ZM72.8045 19.9399C70.2411 19.9399 68.2551 17.9461 68.2551 15.4022C68.2551 12.8584 70.2411 10.8646 72.8045 10.8646C75.3679 10.8646 77.3539 12.8584 77.3539 15.4022C77.3539 17.9461 75.3679 19.9399 72.8045 19.9399ZM91.3587 5.08936V11.9188C90.3887 10.3833 88.7491 9.39785 86.6938 9.39785C83.4376 9.39785 80.7359 12.0104 80.7359 15.4022C80.7359 18.794 83.4376 21.4066 86.6938 21.4066C88.7491 21.4066 90.3887 20.4212 91.3587 18.8857V21.1316H92.8828V5.08936H91.3587ZM86.8092 19.9399C84.2459 19.9399 82.26 17.9461 82.26 15.4022C82.26 12.8584 84.2459 10.8646 86.8092 10.8646C89.3726 10.8646 91.3587 12.8584 91.3587 15.4022C91.3587 17.9461 89.3726 19.9399 86.8092 19.9399ZM104.424 9.67286L100.683 19.2753L96.3411 9.67286H94.7245L99.8975 21.2004L99.5973 21.9108C98.9737 23.4004 97.9345 24.4546 96.4335 24.2942V25.7151C98.5119 25.8755 100.221 24.3859 101.098 22.1858L106.04 9.67286H104.424Z" fill="#36364A"/>
<path d="M16.1891 0.712731C16.1891 0.319105 15.8701 0 15.4764 0C15.0827 0 14.7637 0.319105 14.7637 0.712731V4.98915C14.7637 5.38272 15.0827 5.70182 15.4764 5.70182C15.8701 5.70182 16.1891 5.38272 16.1891 4.98915V0.712731Z" fill="#36364A"/>
<path d="M5.09593 12.8801C5.29521 12.5391 5.17694 12.1032 4.83184 11.9065L1.08246 9.76843C0.737336 9.57166 0.296044 9.68847 0.0967914 10.0292C-0.102461 10.3702 0.0157822 10.8061 0.360895 11.0028L4.11027 13.1409C4.45537 13.3377 4.89664 13.221 5.09593 12.8801Z" fill="#36364A"/>
<path d="M24.9515 3.32247C25.1482 2.9773 25.0315 2.5361 24.6905 2.33673C24.3497 2.13755 23.9138 2.25578 23.717 2.60095L21.5789 6.35022C21.3822 6.69539 21.499 7.13673 21.8399 7.33595C22.1807 7.53518 22.6166 7.4169 22.8134 7.07188L24.9515 3.32247Z" fill="#36364A"/>
<path d="M9.11239 7.33595C9.45338 7.13673 9.57005 6.69539 9.37337 6.35022L7.23532 2.60096C7.03849 2.25579 6.60265 2.13754 6.2618 2.33674C5.9208 2.53611 5.80413 2.9773 6.00082 3.32247L8.13887 7.07188C8.3357 7.4169 8.77154 7.53518 9.11239 7.33595Z" fill="#36364A"/>
<path d="M30.5916 11.0028C30.9367 10.8061 31.055 10.3702 30.8557 10.0292C30.6564 9.68847 30.2151 9.57166 29.87 9.76843L26.1207 11.9065C25.7756 12.1032 25.6573 12.5391 25.8566 12.8801C26.0559 13.221 26.4971 13.3377 26.8422 13.1409L30.5916 11.0028Z" fill="#36364A"/>
<path d="M22.141 21.377V27.264C22.141 27.7056 21.8448 27.9999 21.4005 27.9999H9.55256C9.1082 27.9999 8.81201 27.7056 8.81201 27.264V21.377H14.736V27.9999H16.2171V21.377H22.141ZM14.736 16.226H8.07161C7.62725 16.226 7.33105 16.5204 7.33105 16.9619V19.1694C7.33105 19.611 7.62725 19.9053 8.07161 19.9053H14.736V16.226ZM22.8814 16.226H16.2171V19.9053H22.8814C23.3258 19.9053 23.622 19.611 23.622 19.1694V16.9619C23.622 16.5204 23.3258 16.226 22.8814 16.226ZM20.7341 15.4166L20.8081 15.1222C21.1043 14.3863 21.0303 13.5033 20.5859 12.8411C20.1417 12.1787 19.3271 11.8108 18.5126 11.8108C17.4758 11.8108 16.5873 12.3995 16.2171 13.3562L14.736 16.9619H18.4386C19.4012 16.9619 20.3637 16.3731 20.7341 15.4166ZM17.624 13.8712C17.772 13.5033 18.1424 13.2825 18.5126 13.2825C18.8088 13.2825 19.105 13.4297 19.3271 13.7241C19.4752 14.0184 19.5493 14.3127 19.4012 14.6071L19.3271 14.9014C19.179 15.2693 18.8088 15.4901 18.4386 15.4901H16.9575L17.624 13.8712ZM14.736 13.3562C14.3658 12.3995 13.4032 11.8108 12.4405 11.8108C11.6259 11.8108 10.8113 12.1787 10.3671 12.9146C9.92276 13.5768 9.84875 14.3863 10.1449 15.1958L10.219 15.4901C10.5893 16.3731 11.5519 16.9619 12.5146 16.9619H16.1429L14.736 13.3562ZM13.329 13.8712L13.9956 15.4901H12.5146C12.1443 15.4901 11.7741 15.2693 11.6259 14.9014L11.4779 14.6071C11.4039 14.3127 11.4039 13.9449 11.6259 13.7241C11.7741 13.4297 12.0703 13.2825 12.4405 13.2825C12.8108 13.2825 13.181 13.5033 13.329 13.8712Z" fill="#36364A"/>
</svg>
