<svg width="120" height="28" viewBox="0 0 120 28" fill="none" xmlns="http://www.w3.org/2000/svg">
<path d="M41.9221 21.8635V14.5437C41.9221 13.4082 41.6838 12.5825 41.2073 12.067C40.7308 11.5512 39.9917 11.2934 38.9902 11.2934C37.6435 11.2934 36.6577 11.6342 36.0327 12.3162C35.4075 12.9979 35.0951 14.104 35.0951 15.6336V21.8635H34.0693V5.70703H35.0951V10.8468L35.0432 12.2903H35.1157C35.537 11.6118 36.0689 11.1203 36.7112 10.8158C37.3535 10.5112 38.1512 10.3587 39.1043 10.3587C41.6598 10.3587 42.9375 11.7328 42.9375 14.481V21.8635H41.9221ZM55.8974 16.2045C55.8974 18.0458 55.452 19.4842 54.5611 20.519C53.6701 21.5541 52.4407 22.0715 50.8729 22.0715C49.8852 22.0715 49.015 21.8329 48.2624 21.3551C47.5095 20.8772 46.9328 20.1921 46.5322 19.2986C46.1316 18.4061 45.9315 17.3747 45.9315 16.2045C45.9315 14.3632 46.3768 12.9285 47.2678 11.9001C48.1587 10.8722 49.3812 10.358 50.9352 10.358C52.4821 10.358 53.696 10.8789 54.5766 11.9209C55.4571 12.963 55.8974 14.3907 55.8974 16.2045ZM47.0087 16.2045C47.0087 17.7551 47.3488 18.9651 48.0292 19.8338C48.7096 20.7025 49.6712 21.1369 50.9144 21.1369C52.1574 21.1369 53.1193 20.7025 53.7997 19.8338C54.4798 18.9651 54.8199 17.7554 54.8199 16.2045C54.8199 14.6471 54.4764 13.439 53.7893 12.5807C53.102 11.7224 52.1369 11.2931 50.8936 11.2931C49.6504 11.2931 48.6922 11.7206 48.0188 12.5756C47.3453 13.4306 47.0087 14.6404 47.0087 16.2045ZM73.0842 21.8635V14.4604C73.0842 13.3596 72.8701 12.5562 72.4426 12.0512C72.0143 11.5458 71.3584 11.2931 70.4744 11.2931C69.3209 11.2931 68.4685 11.6116 67.9153 12.2484C67.3626 12.8852 67.0865 13.8856 67.0865 15.249V21.8635H66.0402V14.1491C66.0402 12.2451 65.1698 11.2934 63.4292 11.2934C62.2485 11.2934 61.3883 11.6377 60.8499 12.3266C60.311 13.0153 60.0418 14.1177 60.0418 15.6338V21.8637H59.0163V10.5769H59.8659L60.0834 12.1241H60.1455C60.4569 11.5634 60.8988 11.1288 61.4716 10.8208C62.0444 10.5128 62.6773 10.3587 63.3676 10.3587C65.1425 10.3587 66.2819 11.0268 66.7866 12.3629H66.8284C67.1943 11.7192 67.6865 11.2242 68.3046 10.878C68.9229 10.5318 69.6259 10.3587 70.4132 10.3587C71.6421 10.3587 72.5642 10.6876 73.1788 11.3452C73.7934 12.0029 74.1009 13.0481 74.1009 14.481V21.8635H73.0842ZM82.294 22.0715C80.6566 22.0715 79.3813 21.5661 78.4661 20.5554C77.5509 19.5448 77.0935 18.1291 77.0935 16.3084C77.0935 14.5087 77.5354 13.0664 78.4194 11.9837C79.3035 10.9002 80.4948 10.3585 81.9932 10.3585C83.3188 10.3585 84.3652 10.8225 85.1326 11.7499C85.8986 12.6776 86.2821 13.9374 86.2821 15.5295V16.3605H78.1703C78.1844 17.9106 78.545 19.0943 79.2529 19.9116C79.9603 20.7287 80.9738 21.1369 82.2935 21.1369C82.9354 21.1369 83.5005 21.0922 83.9875 21.002C84.4739 20.912 85.0901 20.718 85.8365 20.4205V21.3551C85.2012 21.6312 84.6141 21.8205 84.0754 21.9204C83.5373 22.0213 82.9432 22.0715 82.294 22.0715ZM81.9939 11.2726C80.9099 11.2726 80.039 11.6308 79.3829 12.3472C78.7267 13.0639 78.3435 14.0968 78.2334 15.4469H85.1945C85.1945 14.1387 84.9114 13.1157 84.3451 12.3784C83.779 11.6412 82.9949 11.2726 81.9939 11.2726ZM94.1455 10.3587C95.7198 10.3587 96.9065 10.8556 97.7042 11.849C98.5019 12.8422 98.9006 14.294 98.9006 16.2045C98.9006 18.0803 98.4813 19.527 97.6421 20.5454C96.8029 21.5627 95.6235 22.0718 94.1044 22.0718C93.303 22.0718 92.5813 21.9056 91.939 21.5735C91.2974 21.241 90.7895 20.7703 90.4162 20.161H90.3229L90.0327 21.8635H89.3906V5.70703H90.4162V9.76703C90.4162 10.3761 90.4023 10.9368 90.3746 11.4491L90.343 12.3317H90.4155C90.8435 11.6532 91.3598 11.155 91.9642 10.8366C92.5691 10.5179 93.2963 10.3587 94.1455 10.3587ZM94.1249 11.2934C92.7993 11.2934 91.8497 11.6743 91.2759 12.4361C90.7031 13.1974 90.4159 14.4539 90.4159 16.2047V16.382C90.4159 18.0844 90.7145 19.3072 91.312 20.0474C91.9092 20.7882 92.8399 21.1589 94.1042 21.1589C95.3333 21.1589 96.2589 20.7278 96.8802 19.8658C97.502 19.0038 97.8127 17.7773 97.8127 16.185C97.8129 12.9236 96.5835 11.2934 94.1249 11.2934ZM111.332 16.2045C111.332 18.0458 110.887 19.4842 109.996 20.519C109.106 21.5541 107.876 22.0715 106.308 22.0715C105.32 22.0715 104.45 21.8329 103.697 21.3551C102.944 20.8772 102.367 20.1921 101.967 19.2986C101.566 18.4061 101.366 17.3747 101.366 16.2045C101.366 14.3632 101.812 12.9285 102.702 11.9001C103.593 10.8722 104.816 10.358 106.37 10.358C107.917 10.358 109.131 10.8789 110.011 11.9209C110.892 12.9634 111.332 14.3907 111.332 16.2045ZM102.444 16.2045C102.444 17.7551 102.785 18.9651 103.464 19.8338C104.144 20.7025 105.106 21.1369 106.349 21.1369C107.593 21.1369 108.555 20.7025 109.235 19.8338C109.915 18.9651 110.255 17.7554 110.255 16.2045C110.255 14.6471 109.912 13.439 109.224 12.5807C108.537 11.7224 107.572 11.2931 106.329 11.2931C105.085 11.2931 104.127 11.7206 103.454 12.5756C102.78 13.4306 102.444 14.6404 102.444 16.2045ZM117.424 21.1577C118.073 21.1577 118.64 21.1026 119.123 20.9916V21.8223C118.626 21.9885 118.052 22.0715 117.403 22.0715C116.409 22.0715 115.675 21.8049 115.202 21.272C114.729 20.7389 114.492 19.9014 114.492 18.7592V11.4699H112.824V10.8676L114.492 10.4004L115.011 7.84591H115.538V10.5769H118.843V11.4699H115.538V18.6136C115.538 19.4791 115.69 20.1196 115.995 20.5355C116.298 20.9501 116.775 21.1577 117.424 21.1577Z" fill="#36364A"/>
<path fill-rule="evenodd" clip-rule="evenodd" d="M13.8573 0C6.20407 0 0 6.21855 0 13.8892C0 21.5598 6.20407 27.7781 13.8571 27.7781C21.5101 27.7781 27.7142 21.56 27.7142 13.8892C27.7144 6.21855 21.5101 0 13.8573 0Z" fill="#36364A"/>
<path d="M13.8574 26.449C6.94774 26.449 1.32617 20.8143 1.32617 13.8891C1.32617 6.96358 6.94774 1.3291 13.8574 1.3291C20.767 1.3291 26.3886 6.96358 26.3886 13.8891C26.3883 20.8143 20.7668 26.449 13.8574 26.449Z" fill="#36364A"/>
<path d="M14.9133 13.752C14.9133 14.6762 15.6618 15.4258 16.5851 15.4258C17.0283 15.4261 17.4535 15.25 17.767 14.9361C18.0806 14.6221 18.2569 14.1962 18.2571 13.752C18.257 13.3077 18.0807 12.8817 17.7671 12.5677C17.4536 12.2537 17.0284 12.0775 16.5851 12.0778C15.6623 12.0778 14.9133 12.8273 14.9133 13.752ZM9.49009 13.752C9.49009 14.6762 10.2386 15.4258 11.1621 15.4258C12.0858 15.4258 12.8343 14.6762 12.8343 13.752C12.8341 13.3077 12.6578 12.8817 12.3442 12.5677C12.0306 12.2537 11.6054 12.0775 11.1621 12.0778C10.2386 12.0778 9.49009 12.8273 9.49009 13.752ZM11.3717 19.9254H9.54319C8.94399 19.9257 8.458 19.4391 8.45761 18.8385V16.9944H7.81186C7.48924 16.9944 7.22756 16.7326 7.22705 16.4092V14.0419C7.22711 13.8866 7.28876 13.7375 7.39843 13.6277C7.5081 13.5179 7.65682 13.4562 7.81186 13.4563H8.45715V11.1343C8.45766 10.534 8.94347 10.0475 9.54249 10.0477H13.5468V9.38284C12.7625 9.22364 12.1731 8.53081 12.1731 7.69914C12.1733 7.24318 12.3542 6.80598 12.676 6.48375C12.9979 6.16151 13.4343 5.98065 13.8892 5.98096C14.8371 5.98096 15.6055 6.74992 15.6055 7.69914C15.6055 8.55511 14.9803 9.26436 14.1625 9.3958V10.0477H18.1793C18.7785 10.0473 19.2646 10.5338 19.2651 11.1343V13.4563H19.9018C20.057 13.456 20.206 13.5175 20.3159 13.6274C20.4257 13.7372 20.4875 13.8864 20.4876 14.0419V16.4092C20.4873 16.5647 20.4255 16.7137 20.3156 16.8234C20.2058 16.9332 20.0569 16.9947 19.9018 16.9944H19.2651V18.8385C19.2645 19.4391 18.7785 19.9255 18.1793 19.9254H11.3717ZM10.556 16.9734C10.1894 16.9734 9.89204 17.2772 9.89204 17.6396V17.741C9.89204 18.1089 10.1903 18.4074 10.556 18.4074H17.3424C17.7092 18.4074 18.0064 18.1036 18.0064 17.741V17.6396C18.0062 17.272 17.7091 16.9739 17.3424 16.9734H10.556Z" fill="white"/>
</svg>
