<svg width="130" height="20" viewBox="0 0 130 20" fill="none" xmlns="http://www.w3.org/2000/svg">
<path d="M25.5615 10.0747C25.9547 13.1373 26.3195 16.0128 26.6983 18.8852C26.7432 19.2293 26.6714 19.3507 26.2832 19.37C23.9454 19.4853 23.9468 19.4945 23.1017 17.3813C22.7499 16.502 22.407 15.6192 22.0322 14.7486C21.9497 14.6055 21.9193 14.4394 21.9459 14.2773C21.9725 14.1151 22.0545 13.9665 22.1785 13.8557C23.2844 12.6565 24.3614 11.4247 25.5615 10.0747Z" fill="#36364A"/>
<path d="M11.8207 12.6414C12.1555 14.3273 12.4858 15.9119 12.7767 17.5035C12.8664 17.9962 13.2703 18.6221 12.9247 18.9552C12.6268 19.2415 11.9652 18.8365 11.4567 18.8549C10.1059 18.9048 9.47709 18.285 9.25763 16.9836C9.12882 16.2196 9.07182 15.6905 9.71674 15.0988C10.4695 14.3231 11.1722 13.5024 11.8207 12.6414Z" fill="#36364A"/>
<path d="M15.6351 15.7164C15.6351 14.7696 15.6203 13.8228 15.6423 12.8764C15.6508 12.5047 15.545 12.3793 15.1405 12.3662C12.3819 12.277 9.62395 12.1689 6.86655 12.0418C6.43346 12.0221 6.26247 12.1422 6.17046 12.5604C5.74501 14.4969 5.2621 16.4221 4.84651 18.3609C4.72982 18.9053 4.5171 19.106 3.93412 19.0442C3.28725 18.9787 2.63605 18.9641 1.98678 19.0004C1.49759 19.0245 1.40335 18.8251 1.41052 18.4091C1.45271 15.5012 1.5151 12.5932 1.48638 9.68617C1.48108 8.79161 1.78695 7.9218 2.35391 7.2192C3.87981 5.14806 5.34962 3.03967 6.82795 0.936532C6.90769 0.792521 7.03318 0.677712 7.18552 0.609405C7.33785 0.541098 7.50879 0.522987 7.67258 0.557803C13.1847 1.13377 18.6989 1.69178 24.2152 2.23181C24.5602 2.2722 24.8897 2.39522 25.1743 2.58993C28.4568 4.67334 31.7334 6.76421 35.0325 8.8222C35.5262 9.12904 35.5397 9.30437 35.0652 9.58184C34.9631 9.63571 34.8719 9.7073 34.796 9.79311C33.8459 10.992 32.7315 10.9381 31.3852 10.4068C29.7578 9.76639 28.0416 9.34163 26.373 8.79722C26.2142 8.73434 26.042 8.71053 25.8716 8.72788C25.7011 8.74523 25.5376 8.80321 25.3955 8.89672C23.8606 9.82774 22.3187 10.7474 20.7698 11.6556C20.6303 11.7286 20.5111 11.8338 20.4227 11.9619C20.3342 12.0901 20.2791 12.2375 20.2622 12.3912C19.9224 14.39 19.5338 16.38 19.2214 18.3841C19.1317 18.9583 18.9221 19.1402 18.3378 19.1003C17.5957 19.0575 16.8517 19.0563 16.1095 19.0968C15.6693 19.1161 15.5565 18.9653 15.5709 18.5555C15.5997 17.6091 15.5799 16.6614 15.5799 15.7146L15.6351 15.7164Z" fill="#36364A"/>
<path d="M48.6017 9.98218C49.7123 8.34584 51.3177 7.87339 53.1721 8.11773C54.2014 8.20073 55.1594 8.66483 55.8499 9.41505C56.5403 10.1653 56.911 11.1449 56.8862 12.1533C56.9574 14.2373 56.8925 16.3258 56.9236 18.4118C56.9314 18.9466 56.6262 18.9136 56.2614 18.9187C55.8617 18.9222 55.5425 18.942 55.5534 18.3697C55.5877 16.5955 55.5705 14.8212 55.5617 13.0496C55.5551 12.6856 55.5263 12.3223 55.4755 11.9617C55.147 9.39922 52.8431 8.97087 51.1158 9.53863C50.0258 9.89347 49.3387 10.9686 49.3241 12.3368C49.3034 14.2665 49.3045 16.1964 49.3273 18.1264C49.3335 18.6541 49.2567 18.9374 48.597 18.9374C47.9264 18.9374 47.8658 18.6262 47.8704 18.1142C47.887 16.2893 47.9068 14.4644 47.8704 12.6395C47.8185 10.2007 46.0839 8.87608 43.7764 9.46715C43.2146 9.60674 42.7137 9.91927 42.348 10.3585C41.9822 10.7977 41.7709 11.3403 41.7454 11.9059C41.5905 13.9859 41.5637 16.0731 41.6651 18.1563C41.6738 18.9856 41.2457 18.9521 40.6789 18.9167C40.4334 18.902 40.2637 18.8401 40.272 18.5583C40.3353 16.267 40.0991 13.9671 40.3955 11.6844C40.6239 9.9249 41.5928 8.64847 43.4151 8.23736C45.3625 7.79532 47.1588 8.07262 48.4408 9.78854C48.4812 9.84076 48.5306 9.8955 48.6017 9.98218Z" fill="#36364A"/>
<path d="M119.411 9.92885C120.101 9.12168 121.023 8.53403 122.057 8.24115C123.09 7.94827 124.19 7.96351 125.216 8.28491C127.845 8.97838 129.18 11.1815 128.972 14.3294C128.916 15.3649 128.543 16.36 127.902 17.1868C127.262 18.0136 126.382 18.6342 125.377 18.9688C124.332 19.3186 123.205 19.3637 122.134 19.0986C121.063 18.8335 120.094 18.2697 119.346 17.4759C118.467 16.4769 117.993 15.1984 118.012 13.8813C117.988 9.7124 118.006 5.54297 118 1.37405C118 0.907683 118.054 0.555876 118.671 0.542189C119.312 0.527996 119.42 0.857494 119.418 1.38013C119.404 4.16719 119.411 6.95424 119.411 9.92885ZM119.411 13.6471C119.333 17.0744 122.246 18.6595 125.167 17.6447C126.976 17.0166 127.961 14.9367 127.579 12.7782C127.295 11.1703 126.525 9.9324 124.812 9.48327C121.722 8.66662 119.406 10.4662 119.411 13.6466V13.6471Z" fill="#36364A"/>
<path d="M113.082 9.95519C113.082 6.96132 113.086 4.15248 113.076 1.34412C113.076 0.866102 113.143 0.533051 113.762 0.540655C114.273 0.548766 114.473 0.720614 114.471 1.23463C114.454 5.4872 114.5 9.73975 114.44 13.9913C114.395 17.1565 112.045 19.2704 108.786 19.2212C105.709 19.1751 103.476 16.9056 103.461 13.8078C103.446 10.9184 104.824 8.86583 107.311 8.26462C109.453 7.74502 111.411 8.09631 113.082 9.95519ZM108.943 17.9271C111.47 17.9306 113.076 16.2725 113.082 13.6517C113.087 10.9604 111.503 9.30177 108.935 9.30836C106.412 9.31495 104.835 10.9701 104.828 13.6218C104.819 16.2385 106.428 17.923 108.943 17.9265V17.9271Z" fill="#36364A"/>
<path d="M87.4541 10.1677C87.4541 7.21745 87.4625 4.36247 87.4469 1.5075C87.4444 1.00666 87.546 0.710111 88.1465 0.728867C88.6225 0.743568 88.8093 0.915415 88.8077 1.38787C88.7917 5.71393 88.8487 10.041 88.7672 14.365C88.7112 17.3447 86.3508 19.4226 83.2658 19.4084C82.5615 19.4271 81.8605 19.3091 81.2034 19.0611C80.5463 18.8132 79.9462 18.4402 79.4378 17.9639C78.9295 17.4876 78.523 16.9175 78.242 16.2865C77.961 15.6556 77.8111 14.9764 77.801 14.2885C77.6883 11.5187 78.8359 9.42813 81.0583 8.65102C83.4416 7.81764 85.6293 8.13447 87.4541 10.1677ZM83.329 18.1137C85.8261 18.1021 87.4811 16.3664 87.4526 13.7953C87.4205 11.1202 85.8027 9.47173 83.2325 9.49454C80.7298 9.51685 79.1484 11.2105 79.1645 13.851C79.1805 16.4586 80.8087 18.1254 83.329 18.1137Z" fill="#36364A"/>
<path d="M96.3759 19.2258C94.8889 19.2151 93.5607 18.8512 92.6706 17.5854C92.4376 17.2544 92.1329 16.858 92.6655 16.5143C93.1154 16.2238 93.4153 16.4048 93.7362 16.7971C94.3304 17.4438 95.1387 17.8656 96.0195 17.9886C96.9002 18.1115 97.7971 17.9279 98.5532 17.4698C98.8053 17.3202 99.009 17.1038 99.1406 16.8458C99.2721 16.5878 99.3261 16.2987 99.2964 16.0119C99.279 15.7359 99.175 15.4718 98.9985 15.2555C98.8221 15.0392 98.5818 14.8812 98.3103 14.8029C97.2952 14.4745 96.2586 14.2133 95.2075 14.0212C94.7659 13.9193 94.3337 13.7813 93.9157 13.6086C93.5338 13.4488 93.1946 13.2054 92.9242 12.8973C92.6539 12.5892 92.4594 12.2246 92.3562 11.8315C92.2529 11.4385 92.2434 11.0275 92.3284 10.6303C92.4134 10.2331 92.5907 9.86029 92.8466 9.54057C94.1835 7.69791 98.851 7.36689 100.257 9.75753C100.439 10.0672 100.845 10.413 100.316 10.7566C99.8646 11.0502 99.5372 10.9731 99.1884 10.4946C98.2231 9.1624 95.6181 8.89374 94.3362 9.94053C94.1018 10.0961 93.918 10.3138 93.8063 10.5681C93.6946 10.8223 93.6596 11.1025 93.7056 11.3755C93.7515 11.6485 93.8764 11.903 94.0656 12.109C94.2547 12.315 94.5003 12.4638 94.7732 12.538C95.628 12.8264 96.5321 12.9775 97.415 13.1868C98.0418 13.3203 98.6468 13.5378 99.2128 13.8332C99.6639 14.0538 100.044 14.3922 100.31 14.8108C100.576 15.2295 100.718 15.7119 100.72 16.2047C100.722 16.6974 100.585 17.1811 100.323 17.6021C100.061 18.0231 99.6841 18.3649 99.2351 18.5896C98.3606 19.0556 97.3708 19.2758 96.3759 19.2258Z" fill="#36364A"/>
<path d="M75.33 15.4453C75.33 16.3836 75.304 17.3209 75.3404 18.2602C75.3602 18.7671 75.2044 18.944 74.6657 18.9283C74.1742 18.9136 73.9391 18.8229 73.9463 18.2764C73.9764 16.5301 73.9718 14.7832 73.9541 13.0369C73.9261 10.3725 71.9393 8.85833 69.283 9.45954C68.5685 9.60861 67.9277 9.99128 67.4661 10.5443C67.0045 11.0973 66.75 11.7876 66.7445 12.5011C66.6655 14.3767 66.6889 16.2523 66.7019 18.1279C66.7055 18.6551 66.6319 18.9283 65.9753 18.9359C65.2793 18.944 65.2632 18.6069 65.2798 18.1132C65.3478 16.1362 65.1381 14.1506 65.3934 12.1792C65.7402 9.49908 67.6704 7.99201 70.5982 8.06399C71.2025 8.05271 71.8031 8.15786 72.3658 8.37345C72.9284 8.58903 73.4419 8.91082 73.8772 9.32041C74.3124 9.73 74.6607 10.2194 74.9022 10.7605C75.1437 11.3017 75.2735 11.884 75.2844 12.4742C75.3519 13.4602 75.2953 14.4512 75.2953 15.4437L75.33 15.4453Z" fill="#36364A"/>
<path d="M61.7832 13.6749C61.7832 15.185 61.7625 16.6951 61.7946 18.2047C61.806 18.7345 61.6675 18.922 61.0866 18.9286C60.4566 18.9357 60.4073 18.6544 60.4119 18.1682C60.4275 15.2007 60.4229 12.2327 60.4166 9.26469C60.4166 8.79224 60.402 8.38113 61.0914 8.36592C61.7806 8.35071 61.7967 8.73191 61.792 9.22312C61.7743 10.7074 61.7832 12.1911 61.7832 13.6749Z" fill="#36364A"/>
<path d="M59.937 5.08218C59.9414 4.78151 60.066 4.49443 60.2843 4.28232C60.5025 4.07022 60.797 3.94993 61.1049 3.94718C61.2641 3.94297 61.4225 3.97166 61.5697 4.03138C61.7168 4.0911 61.8494 4.1805 61.9587 4.29373C62.068 4.40695 62.1516 4.54145 62.204 4.68842C62.2564 4.83539 62.2764 4.9915 62.2628 5.14656C62.2471 5.44303 62.1133 5.72177 61.89 5.92314C61.6667 6.12452 61.3715 6.23255 61.0677 6.22414C60.7639 6.21573 60.4755 6.09154 60.2642 5.87813C60.0529 5.66473 59.9355 5.37904 59.937 5.08218Z" fill="#36364A"/>
</svg>
