<svg width="73" height="18" viewBox="0 0 73 18" fill="none" xmlns="http://www.w3.org/2000/svg">
<g clipPath="url(#clip0_297_4221)">
<path d="M0.920898 16.875V1.125H7.88398C8.85732 1.125 9.74079 1.35 10.5344 1.8C11.328 2.235 11.9496 2.8275 12.3988 3.5775C12.8629 4.3275 13.0951 5.1825 13.0951 6.1425C13.0951 7.0875 12.8629 7.95 12.3988 8.73C11.9496 9.495 11.328 10.1025 10.5344 10.5525C9.74079 11.0025 8.85732 11.2275 7.88398 11.2275H4.17782V16.875H0.920898ZM9.83813 16.875L5.83998 9.765L9.29906 9.2025L13.7465 16.8975L9.83813 16.875ZM4.17782 8.4825H7.72675C8.13106 8.4825 8.48295 8.3925 8.78244 8.2125C9.0969 8.0175 9.33649 7.755 9.50121 7.425C9.66592 7.08001 9.74829 6.69751 9.74829 6.2775C9.74829 5.8275 9.65095 5.43751 9.45629 5.1075C9.26162 4.7775 8.9771 4.5225 8.60275 4.3425C8.22839 4.1475 7.79413 4.05 7.29998 4.05H4.17782V8.4825Z" fill="#36364A"/>
<path d="M20.2752 17.0999C18.9874 17.0999 17.8568 16.8374 16.8834 16.3124C15.9251 15.7873 15.1764 15.0673 14.6372 14.1524C14.1132 13.2374 13.8511 12.1873 13.8511 11.0024C13.8511 10.0724 14.0009 9.22489 14.3003 8.45989C14.5998 7.69489 15.0191 7.0349 15.5582 6.47989C16.0972 5.9099 16.7337 5.4749 17.4675 5.17489C18.2161 4.85989 19.0248 4.70239 19.8933 4.70239C20.702 4.70239 21.4506 4.8524 22.1395 5.15239C22.8283 5.4524 23.4198 5.87239 23.914 6.41239C24.423 6.9374 24.8124 7.5674 25.082 8.30239C25.3515 9.02239 25.4712 9.8024 25.4413 10.6424L25.4189 11.6324H15.8727L15.356 9.67489H22.7909L22.4315 10.0799V9.58489C22.4015 9.17989 22.2667 8.81989 22.0271 8.50489C21.8026 8.1749 21.5106 7.91989 21.1512 7.73989C20.7918 7.5449 20.3874 7.44739 19.9382 7.44739C19.2794 7.44739 18.7178 7.5749 18.2535 7.82989C17.8043 8.0849 17.46 8.45989 17.2203 8.95489C16.9808 9.44989 16.8609 10.0499 16.8609 10.7549C16.8609 11.4749 17.0107 12.0973 17.3103 12.6224C17.6247 13.1474 18.0589 13.5598 18.613 13.8599C19.182 14.1448 19.8483 14.2874 20.612 14.2874C21.1361 14.2874 21.6154 14.2049 22.0496 14.0399C22.4838 13.8748 22.948 13.5899 23.4423 13.1849L24.9696 15.3224C24.5354 15.7124 24.0561 16.0424 23.5321 16.3124C23.008 16.5674 22.4689 16.7624 21.9148 16.8974C21.3608 17.0324 20.8143 17.0999 20.2752 17.0999Z" fill="#36364A"/>
<path d="M30.6735 17.1001C29.5653 17.1001 28.577 16.9201 27.7086 16.5601C26.855 16.1851 26.1662 15.6751 25.6421 15.0301L27.6412 13.3201C28.0904 13.8151 28.5995 14.1751 29.1686 14.4001C29.7376 14.6101 30.3066 14.7151 30.8756 14.7151C31.1002 14.7151 31.3024 14.6926 31.4821 14.6476C31.6767 14.5876 31.8415 14.5126 31.9762 14.4226C32.111 14.3176 32.2084 14.1976 32.2682 14.0626C32.3432 13.9126 32.3806 13.7551 32.3806 13.5901C32.3806 13.2601 32.2458 13.0051 31.9762 12.8251C31.8265 12.7351 31.5944 12.6376 31.2799 12.5326C30.9655 12.4126 30.5612 12.2851 30.067 12.1501C29.3033 11.9551 28.6519 11.7301 28.1129 11.4751C27.5887 11.2051 27.1695 10.9051 26.855 10.5751C26.5855 10.2601 26.3758 9.9226 26.2261 9.5626C26.0913 9.1876 26.0239 8.7751 26.0239 8.3251C26.0239 7.7851 26.1438 7.2976 26.3833 6.8626C26.6229 6.4126 26.9524 6.0301 27.3716 5.7151C27.8059 5.4001 28.3001 5.1601 28.8541 4.9951C29.4081 4.8151 29.9921 4.7251 30.6061 4.7251C31.2201 4.7251 31.819 4.8001 32.403 4.9501C32.987 5.10011 33.5261 5.3176 34.0202 5.6026C34.5293 5.8726 34.9712 6.1951 35.3455 6.5701L33.6384 8.4601C33.3689 8.20509 33.0619 7.9726 32.7175 7.7626C32.3881 7.55261 32.0436 7.3876 31.6842 7.2676C31.3249 7.14761 31.0029 7.0876 30.7184 7.0876C30.4638 7.0876 30.2318 7.1101 30.0221 7.1551C29.8275 7.2001 29.6627 7.2751 29.5279 7.3801C29.3932 7.4701 29.2884 7.5826 29.2135 7.7176C29.1536 7.8526 29.1236 8.00259 29.1236 8.1676C29.1236 8.3326 29.161 8.4901 29.2359 8.6401C29.3258 8.79011 29.4456 8.9176 29.5953 9.0226C29.7601 9.1126 29.9996 9.21761 30.3141 9.3376C30.6435 9.4576 31.0853 9.5926 31.6393 9.7426C32.3581 9.93761 32.9646 10.1551 33.4587 10.3951C33.9678 10.6351 34.3721 10.9126 34.6716 11.2276C34.9262 11.4976 35.1133 11.8051 35.2332 12.1501C35.353 12.4951 35.4129 12.8776 35.4129 13.2976C35.4129 14.0326 35.2032 14.6851 34.7839 15.2551C34.3796 15.8251 33.8181 16.2751 33.0993 16.6051C32.3806 16.9351 31.5719 17.1001 30.6735 17.1001Z" fill="#36364A"/>
<path d="M42.2018 17.0999C40.914 17.0999 39.7835 16.8374 38.8101 16.3124C37.8518 15.7873 37.1031 15.0673 36.564 14.1524C36.0398 13.2374 35.7778 12.1873 35.7778 11.0024C35.7778 10.0724 35.9275 9.22489 36.2271 8.45989C36.5266 7.69489 36.9458 7.0349 37.4849 6.47989C38.024 5.9099 38.6604 5.4749 39.3941 5.17489C40.1429 4.85989 40.9515 4.70239 41.82 4.70239C42.6286 4.70239 43.3774 4.8524 44.0661 5.15239C44.7549 5.4524 45.3464 5.87239 45.8406 6.41239C46.3497 6.9374 46.7391 7.5674 47.0086 8.30239C47.2781 9.02239 47.398 9.8024 47.368 10.6424L47.3455 11.6324H37.7994L37.2828 9.67489H44.7175L44.3581 10.0799V9.58489C44.3282 9.17989 44.1934 8.81989 43.9538 8.50489C43.7292 8.1749 43.4372 7.91989 43.0778 7.73989C42.7184 7.5449 42.3141 7.44739 41.8649 7.44739C41.206 7.44739 40.6445 7.5749 40.1803 7.82989C39.7311 8.0849 39.3866 8.45989 39.1471 8.95489C38.9075 9.44989 38.7877 10.0499 38.7877 10.7549C38.7877 11.4749 38.9374 12.0973 39.2369 12.6224C39.5514 13.1474 39.9857 13.5598 40.5397 13.8599C41.1087 14.1448 41.7751 14.2874 42.5388 14.2874C43.0629 14.2874 43.542 14.2049 43.9763 14.0399C44.4106 13.8748 44.8748 13.5899 45.3689 13.1849L46.8963 15.3224C46.462 15.7124 45.9829 16.0424 45.4588 16.3124C44.9346 16.5674 44.3955 16.7624 43.8415 16.8974C43.2875 17.0324 42.7409 17.0999 42.2018 17.0999Z" fill="#36364A"/>
<path d="M48.6016 16.8751V4.9726H51.6563L51.7462 7.4026L51.1173 7.6726C51.282 7.1326 51.574 6.6451 51.9933 6.2101C52.4275 5.7601 52.9442 5.4001 53.5431 5.1301C54.1421 4.8601 54.7711 4.7251 55.4299 4.7251C56.3283 4.7251 57.0771 4.9051 57.676 5.2651C58.29 5.6251 58.7468 6.1726 59.0462 6.9076C59.3606 7.6276 59.5179 8.52011 59.5179 9.5851V16.8751H56.3283V9.8326C56.3283 9.2926 56.2535 8.8426 56.1037 8.4826C55.954 8.1226 55.7219 7.8601 55.4074 7.6951C55.108 7.53009 54.7336 7.4551 54.2843 7.4701C53.9249 7.4701 53.588 7.53011 53.2736 7.6501C52.9741 7.75509 52.712 7.91261 52.4874 8.1226C52.2778 8.3326 52.1056 8.5726 51.9708 8.8426C51.8511 9.1126 51.7911 9.4051 51.7911 9.7201V16.8751H50.2188C49.8745 16.8751 49.5674 16.8751 49.2979 16.8751C49.0283 16.8751 48.7963 16.8751 48.6016 16.8751Z" fill="#36364A"/>
<path d="M66.1007 17.1001C65.0526 17.1001 64.1167 16.8376 63.293 16.3126C62.4844 15.7726 61.8406 15.045 61.3613 14.1301C60.8972 13.2 60.665 12.1276 60.665 10.9126C60.665 9.7276 60.8972 8.6701 61.3613 7.7401C61.8406 6.7951 62.4844 6.0601 63.293 5.5351C64.1167 4.9951 65.0526 4.7251 66.1007 4.7251C66.6549 4.7251 67.1864 4.8151 67.6955 4.9951C68.2196 5.1601 68.6838 5.3926 69.0881 5.6926C69.5075 5.9926 69.8444 6.3301 70.0989 6.7051C70.3535 7.0651 70.4958 7.4401 70.5257 7.8301L69.717 7.9876V0.225098H72.929V16.8751H69.8967L69.762 14.1301L70.3909 14.1976C70.361 14.5725 70.2262 14.9325 69.9866 15.2776C69.747 15.6226 69.425 15.9376 69.0207 16.2226C68.6315 16.4926 68.1822 16.71 67.673 16.8751C67.1789 17.025 66.6549 17.1001 66.1007 17.1001ZM66.8195 14.4451C67.4185 14.4451 67.9426 14.2951 68.3918 13.9951C68.841 13.695 69.193 13.2826 69.4475 12.7576C69.7021 12.2325 69.8293 11.6176 69.8293 10.9126C69.8293 10.2226 69.7021 9.6151 69.4475 9.0901C69.193 8.5651 68.841 8.1526 68.3918 7.8526C67.9426 7.5526 67.4185 7.4026 66.8195 7.4026C66.2206 7.4026 65.6964 7.5526 65.2472 7.8526C64.813 8.1526 64.4686 8.5651 64.214 9.0901C63.9744 9.6151 63.8546 10.2226 63.8546 10.9126C63.8546 11.6176 63.9744 12.2325 64.214 12.7576C64.4686 13.2826 64.813 13.695 65.2472 13.9951C65.6964 14.2951 66.2206 14.4451 66.8195 14.4451Z" fill="#36364A"/>
</g>
<defs>
<clipPath id="clip0_297_4221">
<rect width="73" height="18" fill="white"/>
</clipPath>
</defs>
</svg>
