<svg width="100" height="28" viewBox="0 0 100 28" fill="none" xmlns="http://www.w3.org/2000/svg">
<g clipPath="url(#clip0_297_4247)">
<path d="M13.8778 0C6.21222 0 0 6.2608 0 13.9843C0 21.7056 6.21333 27.9664 13.8778 27.9664C21.5411 27.9664 27.7544 21.7056 27.7544 13.9832C27.7544 6.2608 21.5422 0 13.8778 0ZM13.8778 3.49552C18.3933 3.49552 22.2089 6.42656 23.6478 10.4877H4.10667C5.54556 6.42656 9.36333 3.49552 13.8778 3.49552ZM13.8778 15.7315C13.65 15.7315 13.4245 15.6863 13.214 15.5984C13.0036 15.5106 12.8124 15.3818 12.6513 15.2194C12.4903 15.0571 12.3625 14.8644 12.2754 14.6523C12.1882 14.4401 12.1433 14.2128 12.1433 13.9832C12.1433 13.7536 12.1882 13.5263 12.2754 13.3141C12.3625 13.102 12.4903 12.9093 12.6513 12.747C12.8124 12.5846 13.0036 12.4558 13.214 12.368C13.4245 12.2801 13.65 12.2349 13.8778 12.2349C14.3378 12.2349 14.7789 12.4191 15.1042 12.747C15.4295 13.0748 15.6122 13.5195 15.6122 13.9832C15.6122 14.4469 15.4295 14.8916 15.1042 15.2194C14.7789 15.5473 14.3378 15.7315 13.8778 15.7315ZM3.46889 13.9843C8.20889 13.9843 12.0467 18.5853 12.1289 24.2939C7.22333 23.4472 3.46889 19.1632 3.46889 13.9843ZM15.6244 24.2939C15.7067 18.5864 19.5456 13.9843 24.2856 13.9843C24.2856 19.1632 20.53 23.4483 15.6244 24.2939ZM36.8944 19.04C36.1233 19.04 35.4467 18.9134 34.8644 18.6592C34.2736 18.387 33.7505 17.9852 33.3333 17.4832L34.6511 16.2893C34.9478 16.6757 35.28 16.9691 35.6489 17.1674C36.0156 17.3667 36.4433 17.4664 36.93 17.4664C37.8333 17.4664 38.2833 17.1125 38.2833 16.4058C38.2833 16.1291 38.2067 15.9141 38.0522 15.7595C37.91 15.5938 37.6611 15.484 37.3044 15.428L36.4322 15.279C35.4578 15.1133 34.7522 14.831 34.3122 14.4346C33.8733 14.037 33.6533 13.4568 33.6533 12.6941C33.6533 11.7891 33.9389 11.1149 34.5089 10.6736C35.0789 10.22 35.8867 9.99376 36.9311 9.99376C37.6544 9.99376 38.2778 10.1046 38.8 10.3253C39.3344 10.5459 39.7978 10.8718 40.1889 11.303L38.9244 12.479C38.6826 12.1993 38.3855 11.9735 38.0522 11.816C37.7024 11.6463 37.3182 11.5612 36.93 11.5674C36.0989 11.5674 35.6833 11.9157 35.6833 12.6112C35.6833 12.899 35.7667 13.1197 35.9333 13.2742C36.1 13.4176 36.3611 13.5173 36.7167 13.5722L37.6067 13.7211C38.5811 13.8869 39.2756 14.1691 39.6911 14.5667C40.1178 14.9531 40.3322 15.4997 40.3322 16.2064C40.3322 17.1024 40.0344 17.7968 39.4411 18.2941C38.8478 18.7914 37.9989 19.04 36.8944 19.04ZM42.0811 18.8418V10.192H44.2356V11.6334H44.4844C44.8533 10.5392 45.5833 9.99264 46.6756 9.99264C47.8389 9.99264 48.5922 10.5616 48.9367 11.6995H49.15C49.3522 11.1138 49.6611 10.6826 50.0767 10.407C50.5033 10.1304 51.0211 9.99264 51.6256 9.99264C52.4089 9.99264 53.02 10.2581 53.4589 10.7878C53.8989 11.3075 54.1189 12.0534 54.1189 13.0245V18.8406H51.9633V13.3728C51.9633 12.2461 51.53 11.6827 50.6633 11.6827C50.2489 11.6827 49.8922 11.8037 49.5956 12.0467C49.3111 12.2786 49.1678 12.6101 49.1678 13.0413V18.8406H47.0133V13.3728C47.0133 12.7758 46.9067 12.3458 46.6933 12.0803C46.4789 11.8149 46.1589 11.6827 45.7311 11.6827C45.3156 11.6827 44.96 11.8037 44.6633 12.0467C44.3778 12.2786 44.2356 12.6101 44.2356 13.0413V18.8406H42.08L42.0811 18.8418ZM62.4133 18.8418C61.4511 18.8418 60.9467 18.349 60.8989 17.3667H60.6856C60.5854 17.8689 60.2988 18.3135 59.8844 18.6099C59.4689 18.8966 58.9522 19.04 58.3344 19.04C57.48 19.04 56.8389 18.8194 56.4122 18.377C55.9844 17.9357 55.77 17.3163 55.77 16.5211C55.77 15.6162 56.0733 14.9419 56.6789 14.5006C57.2844 14.0582 58.1567 13.8376 59.2967 13.8376H60.7389V13.0917C60.7389 12.5843 60.62 12.208 60.3833 11.965C60.1567 11.723 59.7778 11.601 59.2433 11.601C58.8033 11.601 58.4356 11.7006 58.1389 11.8989C57.8422 12.087 57.5811 12.3581 57.3556 12.7109L56.0911 11.6502C56.4356 11.1541 56.8689 10.7565 57.3911 10.4574C57.9244 10.1483 58.6022 9.99376 59.4211 9.99376C61.7367 9.99376 62.8933 11.0096 62.8933 13.0424V17.2346H63.7133V18.8418H62.4133ZM59.1544 17.565C59.5933 17.565 59.9678 17.4496 60.2767 17.2178C60.5844 16.9747 60.7389 16.6432 60.7389 16.2232V15.0808H59.4389C58.4411 15.0808 57.9433 15.4392 57.9433 16.1571V16.5211C57.9433 16.8862 58.05 17.1517 58.2633 17.3163C58.4778 17.4832 58.7744 17.565 59.1544 17.565ZM65.3833 18.8418V10.192H67.5389V11.9638H67.7878C67.8944 11.3904 68.1144 10.9536 68.4467 10.6557C68.7911 10.3466 69.2356 10.192 69.7822 10.192H70.2456V12.2461H69.5333C68.8556 12.2461 68.3522 12.3458 68.0189 12.544C67.6989 12.7434 67.5389 13.0906 67.5389 13.5878V18.8406L65.3833 18.8418ZM74.5389 18.8418C73.7911 18.8418 73.25 18.6861 72.9189 18.377C72.5856 18.0678 72.4189 17.5762 72.4189 16.903V11.8003H71.1911V10.192H71.8322C72.1411 10.192 72.3489 10.1248 72.4544 9.99264C72.5744 9.86048 72.6333 9.64992 72.6333 9.3632V7.84H74.5744V10.192H76.2489V11.8003H74.5744V17.2346H76.1056V18.8418H74.5389ZM81.1467 19.04C79.8889 19.04 78.9267 18.676 78.2622 17.9469C77.6089 17.2178 77.2822 16.0742 77.2822 14.5163C77.2822 12.9595 77.6089 11.8171 78.2622 11.0869C78.9267 10.3589 79.8889 9.99376 81.1467 9.99376C82.0611 9.99376 82.7856 10.1875 83.32 10.5739C83.869 10.965 84.2804 11.522 84.4944 12.1643L82.7322 12.8923C82.6367 12.4734 82.4656 12.1587 82.2156 11.9493C81.9778 11.7275 81.6222 11.6178 81.1467 11.6178C80.0789 11.6178 79.5444 12.2136 79.5444 13.4064V15.6274C79.5444 16.8202 80.0778 17.416 81.1467 17.416C81.6456 17.416 82.0256 17.3062 82.2867 17.0845C82.5478 16.8638 82.7433 16.5222 82.8744 16.0574L84.5478 16.8034C84.0022 18.2941 82.8678 19.04 81.1467 19.04ZM92.1667 18.8418C91.2056 18.8418 90.7011 18.349 90.6533 17.3667H90.44C90.3397 17.8688 90.0532 18.3134 89.6389 18.6099C89.2233 18.8966 88.7067 19.04 88.09 19.04C87.2344 19.04 86.5933 18.8194 86.1667 18.377C85.7389 17.9357 85.5256 17.3163 85.5256 16.5211C85.5256 15.6162 85.8278 14.9419 86.4333 14.5006C87.0389 14.0582 87.9111 13.8376 89.0511 13.8376H90.4933V13.0917C90.4933 12.5843 90.3744 12.208 90.1378 11.965C89.9122 11.723 89.5322 11.601 88.9978 11.601C88.5589 11.601 88.19 11.7006 87.8933 11.8989C87.5967 12.087 87.3356 12.3581 87.11 12.7109L85.8456 11.6502C86.19 11.1541 86.6233 10.7565 87.1456 10.4574C87.68 10.1483 88.3567 9.99376 89.1756 9.99376C91.4911 9.99376 92.6489 11.0096 92.6489 13.0424V17.2346H93.4678V18.8418H92.1667ZM88.9089 17.565C89.3478 17.565 89.7222 17.4496 90.0311 17.2178C90.3389 16.9747 90.4933 16.6432 90.4933 16.2232V15.0808H89.1933C88.1967 15.0808 87.6978 15.4392 87.6978 16.1571V16.5211C87.6978 16.8862 87.8045 17.1517 88.0178 17.3163C88.2322 17.4832 88.5289 17.565 88.9089 17.565ZM95.1389 18.8418V10.192H97.2933V11.9638H97.5422C97.65 11.3904 97.8689 10.9536 98.2011 10.6557C98.5456 10.3466 98.99 10.192 99.5367 10.192H100V12.2461H99.2878C98.61 12.2461 98.1067 12.3458 97.7745 12.544C97.4533 12.7434 97.2933 13.0906 97.2933 13.5878V18.8406H95.1378L95.1389 18.8418Z" fill="#36364A"/>
</g>
<defs>
<clipPath id="clip0_297_4247">
<rect width="100" height="28" fill="white"/>
</clipPath>
</defs>
</svg>
