<svg width="64" height="22" viewBox="0 0 64 22" fill="none" xmlns="http://www.w3.org/2000/svg">
<path fill-rule="evenodd" clip-rule="evenodd" d="M44.1492 17.497C42.1524 17.497 40.6549 16.0687 40.6549 13.7834C40.6549 11.4981 42.1524 10.0698 44.1492 10.0698C46.2173 10.0698 47.6435 11.4981 47.6435 13.7834C47.6435 16.0687 46.2173 17.497 44.1492 17.497ZM51.0666 16.9257V14.3547V1H47.7148V8.78428C46.7878 7.57023 45.1476 7.07032 43.65 7.07032C39.9417 7.07032 37.1605 9.71269 37.1605 13.8548C37.1605 18.2826 39.8704 20.5679 43.5787 20.5679C45.2902 20.5679 46.9304 19.8537 47.7861 18.6397C47.8064 18.8227 47.821 18.9941 47.8347 19.1557C47.869 19.5612 47.8981 19.9043 48.0001 20.2108H51.0666V16.9257ZM16.1233 7.42735V3.4995H19.4037V7.42735H21.8283V10.2126H19.4037V20.2108H16.1233V10.2126V7.42735ZM11.06 16.5686C11.06 17.4969 10.2042 17.854 9.20585 17.854C7.99353 17.854 7.20909 17.2827 7.06646 16.3543L4 16.8542C4.28525 18.9252 5.99677 20.4963 9.20585 20.4963C12.4862 20.4963 14.3404 18.9252 14.3404 16.5686C14.3404 14.7117 13.1281 13.4263 10.7747 12.7835L9.13454 12.355C8.13615 12.0694 7.70828 11.7123 7.70828 11.0695C7.70828 10.2839 8.35009 9.78407 9.34848 9.78407C10.2755 9.78407 11.06 10.2839 11.1313 11.141L14.1265 10.4268C13.7699 8.28435 11.7731 7.07026 9.27716 7.07026C6.13939 7.07026 4.42788 8.85566 4.42788 11.141C4.42788 12.8549 5.42626 14.2118 8.13615 14.926L9.84767 15.3545C10.6321 15.5687 11.06 15.9258 11.06 16.5686ZM25.9644 12.7121H32.0974C31.9547 10.7839 30.8137 9.85552 29.1736 9.85552C27.3907 9.85552 26.321 10.8553 25.9644 12.7121ZM35.5204 14.9975H25.9644C26.1784 16.9257 27.676 17.6398 29.1736 17.6398C30.7425 17.6398 31.6695 16.9257 32.24 15.783L35.0212 16.8542C34.0941 19.0681 31.8121 20.425 29.1736 20.425C25.394 20.425 22.7554 17.7826 22.7554 13.7119C22.7554 9.71269 25.3227 6.92748 29.1736 6.92748C32.9532 6.92748 35.5204 9.56986 35.5204 13.7119V14.9975ZM53.7763 7.42738H57.1281V20.1393H53.7763V7.42738ZM57.1092 4.35752L57.1189 1.00099L60.4706 1.01073L60.4609 4.36726L57.1092 4.35752Z" fill="#36364A"/>
</svg>
