<svg width="105" height="22" viewBox="0 0 105 22" fill="none" xmlns="http://www.w3.org/2000/svg">
<g clipPath="url(#clip0_297_4172)">
<path fill-rule="evenodd" clip-rule="evenodd" d="M12.799 0.209936C12.8803 0.222366 12.9567 0.256693 13.0199 0.309202C13.0831 0.361711 13.1306 0.430404 13.1573 0.507852L13.173 0.564685L13.711 3.31285C14.4306 3.58753 15.109 3.95886 15.7275 4.41652L15.9532 4.59069L18.6698 3.6676C18.8448 3.59244 19.0318 3.64652 19.1636 3.79594C20.0977 4.83819 20.8567 6.09585 21.2971 7.41677C21.3302 7.49041 21.3399 7.57236 21.3249 7.65165C21.3099 7.73094 21.271 7.80378 21.2132 7.86043L21.1653 7.89985L19.0097 9.72402C19.0871 10.1319 19.1092 10.5729 19.1092 11.0019C19.1092 11.3474 19.0945 11.6976 19.0493 12.0322L19.0097 12.2806L21.1653 14.1066C21.2401 14.1595 21.2941 14.2366 21.3181 14.3247C21.3422 14.4128 21.3347 14.5064 21.2971 14.5897C20.8576 15.9115 20.0995 17.1674 19.1645 18.2087C19.0466 18.3425 18.8863 18.4003 18.7288 18.3581L18.6698 18.3379L15.9541 17.4139C15.3581 17.8915 14.6921 18.2848 13.9809 18.5836L13.7119 18.6918L13.173 21.4418C13.1544 21.5318 13.1086 21.614 13.0418 21.6774C12.9749 21.7408 12.8902 21.7823 12.799 21.7965C12.0952 21.9249 11.3914 22 10.6664 22C9.94051 22 9.23672 21.9249 8.53292 21.7965C8.45148 21.784 8.37499 21.7497 8.31169 21.6972C8.24839 21.6447 8.20066 21.5761 8.17365 21.4986L8.15891 21.4418L7.62093 18.6918C6.88893 18.418 6.20022 18.0411 5.57587 17.5725L5.37781 17.4139L2.66212 18.3379C2.48709 18.4131 2.30008 18.359 2.16743 18.2087C1.23241 17.1674 0.474266 15.9115 0.0348541 14.5897C0.00187606 14.516 -0.00776706 14.4341 0.00720869 14.3548C0.0221844 14.2756 0.0610684 14.2027 0.118683 14.146L0.166586 14.1066L2.32127 12.2806C2.24904 11.8583 2.21574 11.4302 2.22178 11.0019C2.22178 10.659 2.2356 10.3079 2.28074 9.97243L2.32127 9.72493L0.165664 7.89985C0.0908855 7.84697 0.0368727 7.76989 0.0128477 7.68179C-0.0111773 7.59368 -0.00372481 7.50001 0.0339329 7.41677C0.473345 6.09585 1.23149 4.83819 2.16651 3.79594C2.21746 3.73255 2.2855 3.68491 2.36267 3.65861C2.43983 3.63231 2.52293 3.62844 2.60224 3.64744L2.66212 3.66669L5.37781 4.58977C5.98196 4.10023 6.65559 3.70236 7.37681 3.4091L7.62093 3.31194L8.15891 0.563769C8.17727 0.473654 8.22298 0.391316 8.28986 0.327876C8.35675 0.264435 8.44158 0.222949 8.53292 0.209019C9.94075 -0.0706495 11.3902 -0.0706495 12.7981 0.209019L12.799 0.209936ZM73.0491 7.57902C73.5926 7.57902 74.0947 7.69635 74.5562 7.93193C75.0285 8.17612 75.4377 8.5256 75.7519 8.9531C76.0872 9.3986 76.3498 9.9431 76.5405 10.5875C76.7312 11.2329 76.826 11.9634 76.826 12.782C76.826 13.5474 76.7183 14.2542 76.4999 14.9023C76.3011 15.5157 75.9914 16.0879 75.5861 16.5908C75.2041 17.0604 74.7241 17.442 74.1794 17.7091C73.6149 17.982 72.9941 18.1201 72.3665 18.1124C71.823 18.1124 71.3679 18.0373 71.0004 17.8869C70.635 17.7384 70.2958 17.5329 69.9954 17.2783V21.1851H66.8817V7.77427H68.8098L68.9047 7.77885C69.0439 7.78626 69.179 7.82885 69.2971 7.9026C69.4321 7.99355 69.53 8.12941 69.5734 8.28577L69.8037 9.03193L69.9576 8.87335C70.1142 8.71844 70.28 8.57543 70.4523 8.44252C71.1949 7.87012 72.1108 7.56566 73.0501 7.57902H73.0491ZM45.6481 7.93193C45.0406 7.7169 44.3997 7.61076 43.755 7.61843C42.9572 7.61843 42.2424 7.75227 41.6095 8.02085C41.0021 8.27173 40.4519 8.64214 39.9919 9.10985C39.5457 9.56938 39.1973 10.1137 38.9675 10.7104C38.7282 11.3272 38.6073 11.9833 38.611 12.6445C38.611 13.5474 38.7492 14.3394 39.0283 15.0196C39.3056 15.7007 39.6842 16.2699 40.1632 16.7283C40.6423 17.1866 41.2014 17.5313 41.8407 17.7641C42.48 17.996 43.1654 18.1124 43.895 18.1124C44.2506 18.1124 44.6228 18.0877 45.0152 18.0391C45.4067 17.9896 45.7982 17.9016 46.1906 17.7733C46.5821 17.6459 46.9644 17.4699 47.3357 17.2434C47.6544 17.0509 47.9547 16.8071 48.2366 16.5156L48.3757 16.3653L47.472 15.2754C47.344 15.0984 47.157 15.0095 46.9092 15.0095C46.7212 15.0095 46.5425 15.0526 46.3721 15.1379C46.2008 15.2231 46.0128 15.3175 45.8093 15.422C45.5845 15.5353 45.351 15.6306 45.111 15.7071C44.8494 15.7924 44.538 15.8354 44.1769 15.8354C43.4998 15.8354 42.9471 15.6429 42.5187 15.2607C42.1189 14.9032 41.8619 14.3422 41.7477 13.5768L41.7256 13.4099H47.7327C47.8737 13.4099 47.9888 13.3934 48.0791 13.3614C48.1695 13.3288 48.2459 13.2664 48.2956 13.1844C48.356 13.0787 48.3937 12.9617 48.4061 12.8407C48.4264 12.6968 48.4365 12.5107 48.4365 12.2815C48.4365 11.5482 48.3205 10.8919 48.0892 10.3125C47.8761 9.76101 47.5473 9.26103 47.1247 8.84585C46.7033 8.4403 46.1999 8.12875 45.6481 7.93193ZM60.4112 7.61843C61.0562 7.61065 61.6975 7.7168 62.3052 7.93193C62.857 8.12848 63.3604 8.43972 63.7819 8.84493C64.1936 9.2446 64.5151 9.7341 64.7464 10.3125C64.9767 10.8919 65.0927 11.5482 65.0927 12.2815C65.0927 12.5107 65.0835 12.6968 65.0623 12.8407C65.0499 12.9617 65.0123 13.0787 64.9518 13.1844C64.9024 13.2663 64.8263 13.3287 64.7362 13.3614C64.6244 13.3971 64.5073 13.4135 64.3899 13.4099H58.3818L58.4039 13.5768C58.5181 14.3422 58.7751 14.9032 59.1759 15.2607C59.6042 15.6439 60.1569 15.8345 60.834 15.8345C61.1951 15.8345 61.5065 15.7924 61.7672 15.7071C62.0072 15.6309 62.2406 15.5359 62.4655 15.4229C62.67 15.3175 62.8579 15.2231 63.0283 15.1388C63.1987 15.0526 63.3784 15.0104 63.5654 15.0104C63.8141 15.0104 64.0011 15.0984 64.1282 15.2754L65.0329 16.3653L64.8928 16.5156C64.6256 16.7958 64.3231 17.0405 63.9928 17.2434C63.6207 17.4699 63.2393 17.6468 62.8478 17.7742C62.4654 17.8997 62.0717 17.9884 61.6723 18.0391C61.2799 18.0877 60.9077 18.1124 60.5521 18.1124C59.8521 18.1176 59.1567 17.9997 58.4979 17.7641C57.8714 17.5401 57.2995 17.1872 56.8194 16.7283C56.3404 16.2699 55.9627 15.7016 55.6845 15.0205C55.4063 14.3394 55.2672 13.5474 55.2672 12.6445C55.2672 11.9634 55.387 11.319 55.6246 10.7104C55.8545 10.1137 56.2029 9.56938 56.649 9.10985C57.1087 8.64225 57.6586 8.27184 58.2657 8.02085C58.8986 7.75227 59.6134 7.61752 60.4103 7.61752L60.4112 7.61843ZM85.2956 7.98143C84.6461 7.73943 83.9267 7.61843 83.1363 7.61843C82.3385 7.61843 81.6135 7.73943 80.9604 7.98143C80.3317 8.20855 79.7571 8.5628 79.2728 9.02185C78.793 9.48507 78.4197 10.0461 78.1784 10.6664C77.9204 11.3108 77.7915 12.0359 77.7915 12.8407C77.7915 13.6519 77.9204 14.3834 78.1784 15.0352C78.4363 15.686 78.8011 16.2388 79.2728 16.6944C79.7566 17.1562 80.3312 17.5135 80.9604 17.7439C81.6144 17.9896 82.3385 18.1124 83.1363 18.1124C83.9267 18.1124 84.647 17.9896 85.2956 17.7439C85.9207 17.5142 86.4906 17.1566 86.9685 16.6944C87.4337 16.2388 87.7957 15.686 88.0536 15.0352C88.3116 14.3844 88.4405 13.6519 88.4405 12.8407C88.4405 12.0359 88.3116 11.3108 88.0536 10.6664C87.8131 10.0479 87.4432 9.48731 86.9685 9.02185C86.4902 8.56234 85.9202 8.20789 85.2956 7.98143ZM102.164 4.81985V7.79444H104.695V9.87527H102.164V14.9316L102.167 15.0306C102.181 15.2222 102.239 15.3844 102.34 15.5164C102.457 15.6695 102.625 15.7465 102.846 15.7465C103.016 15.7502 103.183 15.7114 103.334 15.6338C103.391 15.6044 103.444 15.5788 103.495 15.5549C103.55 15.5311 103.61 15.5195 103.671 15.521C103.751 15.5174 103.83 15.5399 103.896 15.5852C103.954 15.6274 104.012 15.6943 104.072 15.7859L105.017 17.2288L104.864 17.336C104.493 17.581 104.088 17.7684 103.661 17.8915C103.158 18.0382 102.639 18.1124 102.103 18.1124C101.607 18.1124 101.171 18.0419 100.792 17.9016C100.434 17.7735 100.108 17.5688 99.8376 17.3021C99.5753 17.0363 99.3747 16.7165 99.2499 16.3653C99.1115 15.9709 99.0435 15.5555 99.0491 15.1379V9.87618H98.1647L98.0864 9.8716C97.9623 9.85899 97.8455 9.80729 97.7529 9.72402C97.6396 9.62318 97.5825 9.47377 97.5825 9.27668V8.0896L99.2397 7.77519L99.8533 5.29102L99.8763 5.21585C99.9721 4.95185 100.192 4.81985 100.536 4.81985H102.164ZM37.8879 6.28285V3.65202H26.254V6.28285H30.3727V17.9557H33.7683V6.28285H37.8879ZM53.4386 3.25969V17.9557H50.325V3.25969H53.4386ZM97.0593 7.91268C96.7709 7.68993 96.3896 7.57902 95.9142 7.57902C95.3514 7.57902 94.8318 7.74585 94.3565 8.07952C93.9066 8.40382 93.5153 8.80181 93.1994 9.25652L93.0705 9.44352L92.9001 8.49202C92.8781 8.37819 92.8461 8.26652 92.8042 8.15835C92.7712 8.07198 92.716 7.99579 92.644 7.93744C92.5665 7.87851 92.4773 7.83664 92.3823 7.8146C92.2917 7.7932 92.1991 7.78092 92.106 7.77793L91.9954 7.77519H90.1484V17.9557H93.2621V11.7114C93.731 10.8607 94.374 10.4354 95.1911 10.4354C95.426 10.4354 95.6204 10.45 95.7742 10.4794C95.928 10.5087 96.0616 10.5243 96.1758 10.5243C96.3094 10.5243 96.4172 10.4968 96.4973 10.4409C96.5674 10.388 96.6175 10.313 96.6392 10.2282L96.6586 10.1512L97.0593 7.91268ZM10.6655 4.56319C7.08387 4.56319 4.18394 7.44518 4.18394 11C4.18394 14.5549 7.08572 17.4369 10.6655 17.4369C14.2453 17.4369 17.1471 14.5549 17.1471 11C17.1471 7.44518 14.2453 4.56319 10.6646 4.56319H10.6655ZM71.3467 9.96969C71.531 9.9266 71.7364 9.90552 71.964 9.90552C72.2127 9.90552 72.4365 9.9541 72.6374 10.0522C72.8382 10.1512 73.0114 10.3125 73.1551 10.538C73.2988 10.7644 73.4112 11.0605 73.4913 11.4272C73.5714 11.7939 73.612 12.2449 73.612 12.782C73.612 13.3449 73.5613 13.8224 73.4618 14.2148C73.3605 14.608 73.2223 14.927 73.0445 15.1727C72.8667 15.4174 72.6576 15.5962 72.4163 15.7071C72.1674 15.82 71.8966 15.8769 71.6231 15.8739C71.3219 15.8739 71.0335 15.8235 70.759 15.7218C70.5102 15.6262 70.2845 15.4794 70.0967 15.2909L69.9954 15.1874V10.8671C70.12 10.7196 70.2542 10.5803 70.397 10.45C70.5284 10.331 70.6757 10.2304 70.8346 10.1512C70.9912 10.0724 71.1625 10.0119 71.3467 9.96969ZM83.1363 9.87618C82.3993 9.87618 81.8604 10.1219 81.5186 10.6123C81.1769 11.1027 81.0064 11.8525 81.0064 12.8609C81.0064 13.8683 81.1769 14.619 81.5186 15.1131C81.8595 15.6081 82.3993 15.8547 83.1363 15.8547C83.852 15.8547 84.3799 15.6072 84.718 15.1131C85.056 14.619 85.2246 13.8683 85.2246 12.8609C85.2246 11.8525 85.056 11.1027 84.718 10.6123C84.3799 10.1209 83.852 9.87618 83.1363 9.87618ZM14.7676 10.1054V8.18952H6.5634V10.1054H9.68903V14.707H11.642V10.1054H14.7676ZM43.8149 9.71852C43.2188 9.71852 42.7536 9.88352 42.4183 10.2144C42.0839 10.5444 41.8628 11.0211 41.7551 11.6426H45.6425C45.6431 11.4041 45.6112 11.1667 45.5476 10.9368C45.487 10.7131 45.381 10.5041 45.2363 10.3226C45.0832 10.1358 44.8891 9.98653 44.6688 9.88627C44.4339 9.77443 44.1493 9.71852 43.8149 9.71852ZM59.0755 10.2144C59.4098 9.88443 59.8751 9.71943 60.4711 9.71943C60.8064 9.71943 61.091 9.77444 61.325 9.88535C61.5599 9.99719 61.7488 10.142 61.8934 10.3226C62.0371 10.5023 62.1412 10.7076 62.2048 10.9368C62.2683 11.1659 62.2996 11.4006 62.2996 11.6426H58.4122C58.5191 11.0211 58.7401 10.5454 59.0755 10.2144Z" fill="#36364A"/>
</g>
<defs>
<clipPath id="clip0_297_4172">
<rect width="105" height="22" fill="white"/>
</clipPath>
</defs>
</svg>
