<svg width="107" height="22" viewBox="0 0 107 22" fill="none" xmlns="http://www.w3.org/2000/svg">
<g clipPath="url(#clip0_297_4240)">
<path d="M54.0747 17.681H57.0849L60.496 8.49805H60.5338L63.9256 17.681H66.9745L70.3281 4.34473H67.3557L65.0879 13.5658H65.0501L61.8104 4.34473H59.2384L55.9992 13.5658H55.9609L53.7125 4.34473H50.7207L54.0747 17.681Z" fill="#36364A"/>
<path d="M71.1821 17.6811H74.002V12.2894C74.002 10.8224 75.1076 9.81263 76.7459 9.81263C78.3846 9.81263 79.3754 10.7462 79.3754 12.2894V17.6811H82.1958V11.9083C82.1958 9.18395 80.2519 7.2978 77.3556 7.2978C76.0219 7.2978 74.8785 7.736 74.0403 8.53618H74.002V3.77319H71.1821V17.6811Z" fill="#36364A"/>
<path d="M88.9005 17.9667C92.2347 17.9667 94.5974 15.6424 94.5974 12.6321C94.5974 9.62196 92.2347 7.29761 88.9005 7.29761C85.5848 7.29761 83.2031 9.62196 83.2031 12.6321C83.2031 15.6424 85.5848 17.9667 88.9005 17.9667ZM88.9005 15.4899C87.1475 15.4899 86.023 14.2706 86.023 12.6321C86.023 10.9937 87.1475 9.77434 88.9005 9.77434C90.6535 9.77434 91.7775 10.9937 91.7775 12.6321C91.7775 14.2706 90.6535 15.4899 88.9005 15.4899Z" fill="#36364A"/>
<path d="M95.6499 21.9676H98.4698V16.8998H98.508C99.156 17.5285 100.414 17.9667 101.671 17.9667C104.663 17.9667 106.892 15.6804 106.892 12.6321C106.892 9.60288 104.644 7.29761 101.652 7.29761C100.356 7.29761 99.1749 7.67863 98.3937 8.47881H98.3555V7.58338H95.6499V21.9676ZM101.233 15.4899C99.6703 15.4899 98.4698 14.4802 98.4698 13.2609V11.9844C98.4698 10.8032 99.7274 9.79342 101.214 9.79342C102.91 9.79342 104.072 10.9365 104.072 12.6321C104.072 14.3278 102.891 15.4899 101.233 15.4899Z" fill="#36364A"/>
<path fill-rule="evenodd" clip-rule="evenodd" d="M45.1318 3.42867C41.3222 -0.367775 35.1609 -0.362935 31.3571 3.44319L15.9525 18.7895C20.1311 22.4495 26.4618 22.3013 30.3991 18.3615L45.2209 3.53043L45.1318 3.42867ZM15.4912 3.51316C19.2998 -0.297814 25.472 -0.297814 29.2805 3.51316L29.3963 3.62898L15.117 17.9172L8.10661 10.9024L15.4912 3.51316ZM7.21951 10.0184L0.225098 3.08161C4.05546 -0.291932 9.89591 -0.148083 13.5548 3.51316L13.6685 3.62686L7.21951 10.0184Z" fill="#36364A"/>
</g>
<defs>
<clipPath id="clip0_297_4240">
<rect width="107" height="22" fill="white"/>
</clipPath>
</defs>
</svg>
